<?xml version="1.0" encoding="utf-8" standalone="no"?>
<!DOCTYPE svg PUBLIC "-//W3C//DTD SVG 1.1//EN"
  "http://www.w3.org/Graphics/SVG/1.1/DTD/svg11.dtd">
<svg xmlns:xlink="http://www.w3.org/1999/xlink" width="864pt" height="360pt" viewBox="0 0 864 360" xmlns="http://www.w3.org/2000/svg" version="1.1">
 <metadata>
  <rdf:RDF xmlns:dc="http://purl.org/dc/elements/1.1/" xmlns:cc="http://creativecommons.org/ns#" xmlns:rdf="http://www.w3.org/1999/02/22-rdf-syntax-ns#">
   <cc:Work>
    <dc:type rdf:resource="http://purl.org/dc/dcmitype/StillImage"/>
    <dc:date>2025-09-03T08:24:50.717745</dc:date>
    <dc:format>image/svg+xml</dc:format>
    <dc:creator>
     <cc:Agent>
      <dc:title>Matplotlib v3.10.6, https://matplotlib.org/</dc:title>
     </cc:Agent>
    </dc:creator>
   </cc:Work>
  </rdf:RDF>
 </metadata>
 <defs>
  <style type="text/css">*{stroke-linejoin: round; stroke-linecap: butt}</style>
 </defs>
 <g id="figure_1">
  <g id="patch_1">
   <path d="M 0 360 
L 864 360 
L 864 0 
L 0 0 
z
" style="fill: #ffffff"/>
  </g>
  <g id="axes_1">
   <g id="patch_2">
    <path d="M 52.94 318.04 
L 423.45 318.04 
L 423.45 26.88 
L 52.94 26.88 
z
" style="fill: #ffffff"/>
   </g>
   <g id="matplotlib.axis_1">
    <g id="xtick_1">
     <g id="line2d_1">
      <path d="M 69.781364 318.04 
L 69.781364 26.88 
" clip-path="url(#pc41e3f4ac6)" style="fill: none; stroke: #b0b0b0; stroke-opacity: 0.3; stroke-width: 0.8; stroke-linecap: square"/>
     </g>
     <g id="line2d_2">
      <defs>
       <path id="m4a07dff095" d="M 0 0 
L 0 3.5 
" style="stroke: #000000; stroke-width: 0.8"/>
      </defs>
      <g>
       <use xlink:href="#m4a07dff095" x="69.781364" y="318.04" style="stroke: #000000; stroke-width: 0.8"/>
      </g>
     </g>
     <g id="text_1">
      <!-- 0 -->
      <g transform="translate(66.600114 332.638438) scale(0.1 -0.1)">
       <defs>
        <path id="DejaVuSans-30" d="M 2034 4250 
Q 1547 4250 1301 3770 
Q 1056 3291 1056 2328 
Q 1056 1369 1301 889 
Q 1547 409 2034 409 
Q 2525 409 2770 889 
Q 3016 1369 3016 2328 
Q 3016 3291 2770 3770 
Q 2525 4250 2034 4250 
z
M 2034 4750 
Q 2819 4750 3233 4129 
Q 3647 3509 3647 2328 
Q 3647 1150 3233 529 
Q 2819 -91 2034 -91 
Q 1250 -91 836 529 
Q 422 1150 422 2328 
Q 422 3509 836 4129 
Q 1250 4750 2034 4750 
z
" transform="scale(0.015625)"/>
       </defs>
       <use xlink:href="#DejaVuSans-30"/>
      </g>
     </g>
    </g>
    <g id="xtick_2">
     <g id="line2d_3">
      <path d="M 137.146818 318.04 
L 137.146818 26.88 
" clip-path="url(#pc41e3f4ac6)" style="fill: none; stroke: #b0b0b0; stroke-opacity: 0.3; stroke-width: 0.8; stroke-linecap: square"/>
     </g>
     <g id="line2d_4">
      <g>
       <use xlink:href="#m4a07dff095" x="137.146818" y="318.04" style="stroke: #000000; stroke-width: 0.8"/>
      </g>
     </g>
     <g id="text_2">
      <!-- 2 -->
      <g transform="translate(133.965568 332.638438) scale(0.1 -0.1)">
       <defs>
        <path id="DejaVuSans-32" d="M 1228 531 
L 3431 531 
L 3431 0 
L 469 0 
L 469 531 
Q 828 903 1448 1529 
Q 2069 2156 2228 2338 
Q 2531 2678 2651 2914 
Q 2772 3150 2772 3378 
Q 2772 3750 2511 3984 
Q 2250 4219 1831 4219 
Q 1534 4219 1204 4116 
Q 875 4013 500 3803 
L 500 4441 
Q 881 4594 1212 4672 
Q 1544 4750 1819 4750 
Q 2544 4750 2975 4387 
Q 3406 4025 3406 3419 
Q 3406 3131 3298 2873 
Q 3191 2616 2906 2266 
Q 2828 2175 2409 1742 
Q 1991 1309 1228 531 
z
" transform="scale(0.015625)"/>
       </defs>
       <use xlink:href="#DejaVuSans-32"/>
      </g>
     </g>
    </g>
    <g id="xtick_3">
     <g id="line2d_5">
      <path d="M 204.512273 318.04 
L 204.512273 26.88 
" clip-path="url(#pc41e3f4ac6)" style="fill: none; stroke: #b0b0b0; stroke-opacity: 0.3; stroke-width: 0.8; stroke-linecap: square"/>
     </g>
     <g id="line2d_6">
      <g>
       <use xlink:href="#m4a07dff095" x="204.512273" y="318.04" style="stroke: #000000; stroke-width: 0.8"/>
      </g>
     </g>
     <g id="text_3">
      <!-- 4 -->
      <g transform="translate(201.331023 332.638438) scale(0.1 -0.1)">
       <defs>
        <path id="DejaVuSans-34" d="M 2419 4116 
L 825 1625 
L 2419 1625 
L 2419 4116 
z
M 2253 4666 
L 3047 4666 
L 3047 1625 
L 3713 1625 
L 3713 1100 
L 3047 1100 
L 3047 0 
L 2419 0 
L 2419 1100 
L 313 1100 
L 313 1709 
L 2253 4666 
z
" transform="scale(0.015625)"/>
       </defs>
       <use xlink:href="#DejaVuSans-34"/>
      </g>
     </g>
    </g>
    <g id="xtick_4">
     <g id="line2d_7">
      <path d="M 271.877727 318.04 
L 271.877727 26.88 
" clip-path="url(#pc41e3f4ac6)" style="fill: none; stroke: #b0b0b0; stroke-opacity: 0.3; stroke-width: 0.8; stroke-linecap: square"/>
     </g>
     <g id="line2d_8">
      <g>
       <use xlink:href="#m4a07dff095" x="271.877727" y="318.04" style="stroke: #000000; stroke-width: 0.8"/>
      </g>
     </g>
     <g id="text_4">
      <!-- 6 -->
      <g transform="translate(268.696477 332.638438) scale(0.1 -0.1)">
       <defs>
        <path id="DejaVuSans-36" d="M 2113 2584 
Q 1688 2584 1439 2293 
Q 1191 2003 1191 1497 
Q 1191 994 1439 701 
Q 1688 409 2113 409 
Q 2538 409 2786 701 
Q 3034 994 3034 1497 
Q 3034 2003 2786 2293 
Q 2538 2584 2113 2584 
z
M 3366 4563 
L 3366 3988 
Q 3128 4100 2886 4159 
Q 2644 4219 2406 4219 
Q 1781 4219 1451 3797 
Q 1122 3375 1075 2522 
Q 1259 2794 1537 2939 
Q 1816 3084 2150 3084 
Q 2853 3084 3261 2657 
Q 3669 2231 3669 1497 
Q 3669 778 3244 343 
Q 2819 -91 2113 -91 
Q 1303 -91 875 529 
Q 447 1150 447 2328 
Q 447 3434 972 4092 
Q 1497 4750 2381 4750 
Q 2619 4750 2861 4703 
Q 3103 4656 3366 4563 
z
" transform="scale(0.015625)"/>
       </defs>
       <use xlink:href="#DejaVuSans-36"/>
      </g>
     </g>
    </g>
    <g id="xtick_5">
     <g id="line2d_9">
      <path d="M 339.243182 318.04 
L 339.243182 26.88 
" clip-path="url(#pc41e3f4ac6)" style="fill: none; stroke: #b0b0b0; stroke-opacity: 0.3; stroke-width: 0.8; stroke-linecap: square"/>
     </g>
     <g id="line2d_10">
      <g>
       <use xlink:href="#m4a07dff095" x="339.243182" y="318.04" style="stroke: #000000; stroke-width: 0.8"/>
      </g>
     </g>
     <g id="text_5">
      <!-- 8 -->
      <g transform="translate(336.061932 332.638438) scale(0.1 -0.1)">
       <defs>
        <path id="DejaVuSans-38" d="M 2034 2216 
Q 1584 2216 1326 1975 
Q 1069 1734 1069 1313 
Q 1069 891 1326 650 
Q 1584 409 2034 409 
Q 2484 409 2743 651 
Q 3003 894 3003 1313 
Q 3003 1734 2745 1975 
Q 2488 2216 2034 2216 
z
M 1403 2484 
Q 997 2584 770 2862 
Q 544 3141 544 3541 
Q 544 4100 942 4425 
Q 1341 4750 2034 4750 
Q 2731 4750 3128 4425 
Q 3525 4100 3525 3541 
Q 3525 3141 3298 2862 
Q 3072 2584 2669 2484 
Q 3125 2378 3379 2068 
Q 3634 1759 3634 1313 
Q 3634 634 3220 271 
Q 2806 -91 2034 -91 
Q 1263 -91 848 271 
Q 434 634 434 1313 
Q 434 1759 690 2068 
Q 947 2378 1403 2484 
z
M 1172 3481 
Q 1172 3119 1398 2916 
Q 1625 2713 2034 2713 
Q 2441 2713 2670 2916 
Q 2900 3119 2900 3481 
Q 2900 3844 2670 4047 
Q 2441 4250 2034 4250 
Q 1625 4250 1398 4047 
Q 1172 3844 1172 3481 
z
" transform="scale(0.015625)"/>
       </defs>
       <use xlink:href="#DejaVuSans-38"/>
      </g>
     </g>
    </g>
    <g id="xtick_6">
     <g id="line2d_11">
      <path d="M 406.608636 318.04 
L 406.608636 26.88 
" clip-path="url(#pc41e3f4ac6)" style="fill: none; stroke: #b0b0b0; stroke-opacity: 0.3; stroke-width: 0.8; stroke-linecap: square"/>
     </g>
     <g id="line2d_12">
      <g>
       <use xlink:href="#m4a07dff095" x="406.608636" y="318.04" style="stroke: #000000; stroke-width: 0.8"/>
      </g>
     </g>
     <g id="text_6">
      <!-- 10 -->
      <g transform="translate(400.246136 332.638438) scale(0.1 -0.1)">
       <defs>
        <path id="DejaVuSans-31" d="M 794 531 
L 1825 531 
L 1825 4091 
L 703 3866 
L 703 4441 
L 1819 4666 
L 2450 4666 
L 2450 531 
L 3481 531 
L 3481 0 
L 794 0 
L 794 531 
z
" transform="scale(0.015625)"/>
       </defs>
       <use xlink:href="#DejaVuSans-31"/>
       <use xlink:href="#DejaVuSans-30" transform="translate(63.623047 0)"/>
      </g>
     </g>
    </g>
    <g id="text_7">
     <!-- Time (s) -->
     <g transform="translate(217.866094 346.316563) scale(0.1 -0.1)">
      <defs>
       <path id="DejaVuSans-54" d="M -19 4666 
L 3928 4666 
L 3928 4134 
L 2272 4134 
L 2272 0 
L 1638 0 
L 1638 4134 
L -19 4134 
L -19 4666 
z
" transform="scale(0.015625)"/>
       <path id="DejaVuSans-69" d="M 603 3500 
L 1178 3500 
L 1178 0 
L 603 0 
L 603 3500 
z
M 603 4863 
L 1178 4863 
L 1178 4134 
L 603 4134 
L 603 4863 
z
" transform="scale(0.015625)"/>
       <path id="DejaVuSans-6d" d="M 3328 2828 
Q 3544 3216 3844 3400 
Q 4144 3584 4550 3584 
Q 5097 3584 5394 3201 
Q 5691 2819 5691 2113 
L 5691 0 
L 5113 0 
L 5113 2094 
Q 5113 2597 4934 2840 
Q 4756 3084 4391 3084 
Q 3944 3084 3684 2787 
Q 3425 2491 3425 1978 
L 3425 0 
L 2847 0 
L 2847 2094 
Q 2847 2600 2669 2842 
Q 2491 3084 2119 3084 
Q 1678 3084 1418 2786 
Q 1159 2488 1159 1978 
L 1159 0 
L 581 0 
L 581 3500 
L 1159 3500 
L 1159 2956 
Q 1356 3278 1631 3431 
Q 1906 3584 2284 3584 
Q 2666 3584 2933 3390 
Q 3200 3197 3328 2828 
z
" transform="scale(0.015625)"/>
       <path id="DejaVuSans-65" d="M 3597 1894 
L 3597 1613 
L 953 1613 
Q 991 1019 1311 708 
Q 1631 397 2203 397 
Q 2534 397 2845 478 
Q 3156 559 3463 722 
L 3463 178 
Q 3153 47 2828 -22 
Q 2503 -91 2169 -91 
Q 1331 -91 842 396 
Q 353 884 353 1716 
Q 353 2575 817 3079 
Q 1281 3584 2069 3584 
Q 2775 3584 3186 3129 
Q 3597 2675 3597 1894 
z
M 3022 2063 
Q 3016 2534 2758 2815 
Q 2500 3097 2075 3097 
Q 1594 3097 1305 2825 
Q 1016 2553 972 2059 
L 3022 2063 
z
" transform="scale(0.015625)"/>
       <path id="DejaVuSans-20" transform="scale(0.015625)"/>
       <path id="DejaVuSans-28" d="M 1984 4856 
Q 1566 4138 1362 3434 
Q 1159 2731 1159 2009 
Q 1159 1288 1364 580 
Q 1569 -128 1984 -844 
L 1484 -844 
Q 1016 -109 783 600 
Q 550 1309 550 2009 
Q 550 2706 781 3412 
Q 1013 4119 1484 4856 
L 1984 4856 
z
" transform="scale(0.015625)"/>
       <path id="DejaVuSans-73" d="M 2834 3397 
L 2834 2853 
Q 2591 2978 2328 3040 
Q 2066 3103 1784 3103 
Q 1356 3103 1142 2972 
Q 928 2841 928 2578 
Q 928 2378 1081 2264 
Q 1234 2150 1697 2047 
L 1894 2003 
Q 2506 1872 2764 1633 
Q 3022 1394 3022 966 
Q 3022 478 2636 193 
Q 2250 -91 1575 -91 
Q 1294 -91 989 -36 
Q 684 19 347 128 
L 347 722 
Q 666 556 975 473 
Q 1284 391 1588 391 
Q 1994 391 2212 530 
Q 2431 669 2431 922 
Q 2431 1156 2273 1281 
Q 2116 1406 1581 1522 
L 1381 1569 
Q 847 1681 609 1914 
Q 372 2147 372 2553 
Q 372 3047 722 3315 
Q 1072 3584 1716 3584 
Q 2034 3584 2315 3537 
Q 2597 3491 2834 3397 
z
" transform="scale(0.015625)"/>
       <path id="DejaVuSans-29" d="M 513 4856 
L 1013 4856 
Q 1481 4119 1714 3412 
Q 1947 2706 1947 2009 
Q 1947 1309 1714 600 
Q 1481 -109 1013 -844 
L 513 -844 
Q 928 -128 1133 580 
Q 1338 1288 1338 2009 
Q 1338 2731 1133 3434 
Q 928 4138 513 4856 
z
" transform="scale(0.015625)"/>
      </defs>
      <use xlink:href="#DejaVuSans-54"/>
      <use xlink:href="#DejaVuSans-69" transform="translate(57.958984 0)"/>
      <use xlink:href="#DejaVuSans-6d" transform="translate(85.742188 0)"/>
      <use xlink:href="#DejaVuSans-65" transform="translate(183.154297 0)"/>
      <use xlink:href="#DejaVuSans-20" transform="translate(244.677734 0)"/>
      <use xlink:href="#DejaVuSans-28" transform="translate(276.464844 0)"/>
      <use xlink:href="#DejaVuSans-73" transform="translate(315.478516 0)"/>
      <use xlink:href="#DejaVuSans-29" transform="translate(367.578125 0)"/>
     </g>
    </g>
   </g>
   <g id="matplotlib.axis_2">
    <g id="ytick_1">
     <g id="line2d_13">
      <path d="M 52.94 304.828295 
L 423.45 304.828295 
" clip-path="url(#pc41e3f4ac6)" style="fill: none; stroke: #b0b0b0; stroke-opacity: 0.3; stroke-width: 0.8; stroke-linecap: square"/>
     </g>
     <g id="line2d_14">
      <defs>
       <path id="md2d4597996" d="M 0 0 
L -3.5 0 
" style="stroke: #000000; stroke-width: 0.8"/>
      </defs>
      <g>
       <use xlink:href="#md2d4597996" x="52.94" y="304.828295" style="stroke: #000000; stroke-width: 0.8"/>
      </g>
     </g>
     <g id="text_8">
      <!-- −60 -->
      <g transform="translate(24.835313 308.627513) scale(0.1 -0.1)">
       <defs>
        <path id="DejaVuSans-2212" d="M 678 2272 
L 4684 2272 
L 4684 1741 
L 678 1741 
L 678 2272 
z
" transform="scale(0.015625)"/>
       </defs>
       <use xlink:href="#DejaVuSans-2212"/>
       <use xlink:href="#DejaVuSans-36" transform="translate(83.789062 0)"/>
       <use xlink:href="#DejaVuSans-30" transform="translate(147.412109 0)"/>
      </g>
     </g>
    </g>
    <g id="ytick_2">
     <g id="line2d_15">
      <path d="M 52.94 260.709336 
L 423.45 260.709336 
" clip-path="url(#pc41e3f4ac6)" style="fill: none; stroke: #b0b0b0; stroke-opacity: 0.3; stroke-width: 0.8; stroke-linecap: square"/>
     </g>
     <g id="line2d_16">
      <g>
       <use xlink:href="#md2d4597996" x="52.94" y="260.709336" style="stroke: #000000; stroke-width: 0.8"/>
      </g>
     </g>
     <g id="text_9">
      <!-- −40 -->
      <g transform="translate(24.835313 264.508555) scale(0.1 -0.1)">
       <use xlink:href="#DejaVuSans-2212"/>
       <use xlink:href="#DejaVuSans-34" transform="translate(83.789062 0)"/>
       <use xlink:href="#DejaVuSans-30" transform="translate(147.412109 0)"/>
      </g>
     </g>
    </g>
    <g id="ytick_3">
     <g id="line2d_17">
      <path d="M 52.94 216.590378 
L 423.45 216.590378 
" clip-path="url(#pc41e3f4ac6)" style="fill: none; stroke: #b0b0b0; stroke-opacity: 0.3; stroke-width: 0.8; stroke-linecap: square"/>
     </g>
     <g id="line2d_18">
      <g>
       <use xlink:href="#md2d4597996" x="52.94" y="216.590378" style="stroke: #000000; stroke-width: 0.8"/>
      </g>
     </g>
     <g id="text_10">
      <!-- −20 -->
      <g transform="translate(24.835313 220.389597) scale(0.1 -0.1)">
       <use xlink:href="#DejaVuSans-2212"/>
       <use xlink:href="#DejaVuSans-32" transform="translate(83.789062 0)"/>
       <use xlink:href="#DejaVuSans-30" transform="translate(147.412109 0)"/>
      </g>
     </g>
    </g>
    <g id="ytick_4">
     <g id="line2d_19">
      <path d="M 52.94 172.47142 
L 423.45 172.47142 
" clip-path="url(#pc41e3f4ac6)" style="fill: none; stroke: #b0b0b0; stroke-opacity: 0.3; stroke-width: 0.8; stroke-linecap: square"/>
     </g>
     <g id="line2d_20">
      <g>
       <use xlink:href="#md2d4597996" x="52.94" y="172.47142" style="stroke: #000000; stroke-width: 0.8"/>
      </g>
     </g>
     <g id="text_11">
      <!-- 0 -->
      <g transform="translate(39.5775 176.270639) scale(0.1 -0.1)">
       <use xlink:href="#DejaVuSans-30"/>
      </g>
     </g>
    </g>
    <g id="ytick_5">
     <g id="line2d_21">
      <path d="M 52.94 128.352462 
L 423.45 128.352462 
" clip-path="url(#pc41e3f4ac6)" style="fill: none; stroke: #b0b0b0; stroke-opacity: 0.3; stroke-width: 0.8; stroke-linecap: square"/>
     </g>
     <g id="line2d_22">
      <g>
       <use xlink:href="#md2d4597996" x="52.94" y="128.352462" style="stroke: #000000; stroke-width: 0.8"/>
      </g>
     </g>
     <g id="text_12">
      <!-- 20 -->
      <g transform="translate(33.215 132.151681) scale(0.1 -0.1)">
       <use xlink:href="#DejaVuSans-32"/>
       <use xlink:href="#DejaVuSans-30" transform="translate(63.623047 0)"/>
      </g>
     </g>
    </g>
    <g id="ytick_6">
     <g id="line2d_23">
      <path d="M 52.94 84.233504 
L 423.45 84.233504 
" clip-path="url(#pc41e3f4ac6)" style="fill: none; stroke: #b0b0b0; stroke-opacity: 0.3; stroke-width: 0.8; stroke-linecap: square"/>
     </g>
     <g id="line2d_24">
      <g>
       <use xlink:href="#md2d4597996" x="52.94" y="84.233504" style="stroke: #000000; stroke-width: 0.8"/>
      </g>
     </g>
     <g id="text_13">
      <!-- 40 -->
      <g transform="translate(33.215 88.032722) scale(0.1 -0.1)">
       <use xlink:href="#DejaVuSans-34"/>
       <use xlink:href="#DejaVuSans-30" transform="translate(63.623047 0)"/>
      </g>
     </g>
    </g>
    <g id="ytick_7">
     <g id="line2d_25">
      <path d="M 52.94 40.114545 
L 423.45 40.114545 
" clip-path="url(#pc41e3f4ac6)" style="fill: none; stroke: #b0b0b0; stroke-opacity: 0.3; stroke-width: 0.8; stroke-linecap: square"/>
     </g>
     <g id="line2d_26">
      <g>
       <use xlink:href="#md2d4597996" x="52.94" y="40.114545" style="stroke: #000000; stroke-width: 0.8"/>
      </g>
     </g>
     <g id="text_14">
      <!-- 60 -->
      <g transform="translate(33.215 43.913764) scale(0.1 -0.1)">
       <use xlink:href="#DejaVuSans-36"/>
       <use xlink:href="#DejaVuSans-30" transform="translate(63.623047 0)"/>
      </g>
     </g>
    </g>
    <g id="text_15">
     <!-- Angle (degrees) -->
     <g transform="translate(18.755625 212.305313) rotate(-90) scale(0.1 -0.1)">
      <defs>
       <path id="DejaVuSans-41" d="M 2188 4044 
L 1331 1722 
L 3047 1722 
L 2188 4044 
z
M 1831 4666 
L 2547 4666 
L 4325 0 
L 3669 0 
L 3244 1197 
L 1141 1197 
L 716 0 
L 50 0 
L 1831 4666 
z
" transform="scale(0.015625)"/>
       <path id="DejaVuSans-6e" d="M 3513 2113 
L 3513 0 
L 2938 0 
L 2938 2094 
Q 2938 2591 2744 2837 
Q 2550 3084 2163 3084 
Q 1697 3084 1428 2787 
Q 1159 2491 1159 1978 
L 1159 0 
L 581 0 
L 581 3500 
L 1159 3500 
L 1159 2956 
Q 1366 3272 1645 3428 
Q 1925 3584 2291 3584 
Q 2894 3584 3203 3211 
Q 3513 2838 3513 2113 
z
" transform="scale(0.015625)"/>
       <path id="DejaVuSans-67" d="M 2906 1791 
Q 2906 2416 2648 2759 
Q 2391 3103 1925 3103 
Q 1463 3103 1205 2759 
Q 947 2416 947 1791 
Q 947 1169 1205 825 
Q 1463 481 1925 481 
Q 2391 481 2648 825 
Q 2906 1169 2906 1791 
z
M 3481 434 
Q 3481 -459 3084 -895 
Q 2688 -1331 1869 -1331 
Q 1566 -1331 1297 -1286 
Q 1028 -1241 775 -1147 
L 775 -588 
Q 1028 -725 1275 -790 
Q 1522 -856 1778 -856 
Q 2344 -856 2625 -561 
Q 2906 -266 2906 331 
L 2906 616 
Q 2728 306 2450 153 
Q 2172 0 1784 0 
Q 1141 0 747 490 
Q 353 981 353 1791 
Q 353 2603 747 3093 
Q 1141 3584 1784 3584 
Q 2172 3584 2450 3431 
Q 2728 3278 2906 2969 
L 2906 3500 
L 3481 3500 
L 3481 434 
z
" transform="scale(0.015625)"/>
       <path id="DejaVuSans-6c" d="M 603 4863 
L 1178 4863 
L 1178 0 
L 603 0 
L 603 4863 
z
" transform="scale(0.015625)"/>
       <path id="DejaVuSans-64" d="M 2906 2969 
L 2906 4863 
L 3481 4863 
L 3481 0 
L 2906 0 
L 2906 525 
Q 2725 213 2448 61 
Q 2172 -91 1784 -91 
Q 1150 -91 751 415 
Q 353 922 353 1747 
Q 353 2572 751 3078 
Q 1150 3584 1784 3584 
Q 2172 3584 2448 3432 
Q 2725 3281 2906 2969 
z
M 947 1747 
Q 947 1113 1208 752 
Q 1469 391 1925 391 
Q 2381 391 2643 752 
Q 2906 1113 2906 1747 
Q 2906 2381 2643 2742 
Q 2381 3103 1925 3103 
Q 1469 3103 1208 2742 
Q 947 2381 947 1747 
z
" transform="scale(0.015625)"/>
       <path id="DejaVuSans-72" d="M 2631 2963 
Q 2534 3019 2420 3045 
Q 2306 3072 2169 3072 
Q 1681 3072 1420 2755 
Q 1159 2438 1159 1844 
L 1159 0 
L 581 0 
L 581 3500 
L 1159 3500 
L 1159 2956 
Q 1341 3275 1631 3429 
Q 1922 3584 2338 3584 
Q 2397 3584 2469 3576 
Q 2541 3569 2628 3553 
L 2631 2963 
z
" transform="scale(0.015625)"/>
      </defs>
      <use xlink:href="#DejaVuSans-41"/>
      <use xlink:href="#DejaVuSans-6e" transform="translate(68.408203 0)"/>
      <use xlink:href="#DejaVuSans-67" transform="translate(131.787109 0)"/>
      <use xlink:href="#DejaVuSans-6c" transform="translate(195.263672 0)"/>
      <use xlink:href="#DejaVuSans-65" transform="translate(223.046875 0)"/>
      <use xlink:href="#DejaVuSans-20" transform="translate(284.570312 0)"/>
      <use xlink:href="#DejaVuSans-28" transform="translate(316.357422 0)"/>
      <use xlink:href="#DejaVuSans-64" transform="translate(355.371094 0)"/>
      <use xlink:href="#DejaVuSans-65" transform="translate(418.847656 0)"/>
      <use xlink:href="#DejaVuSans-67" transform="translate(480.371094 0)"/>
      <use xlink:href="#DejaVuSans-72" transform="translate(543.847656 0)"/>
      <use xlink:href="#DejaVuSans-65" transform="translate(582.710938 0)"/>
      <use xlink:href="#DejaVuSans-65" transform="translate(644.234375 0)"/>
      <use xlink:href="#DejaVuSans-73" transform="translate(705.757812 0)"/>
      <use xlink:href="#DejaVuSans-29" transform="translate(757.857422 0)"/>
     </g>
    </g>
   </g>
   <g id="line2d_27">
    <path d="M 69.781364 40.114545 
L 70.118528 40.184144 
L 70.792857 40.709095 
L 71.467186 41.746715 
L 72.478679 44.318574 
L 73.153008 46.627967 
L 73.827337 49.431995 
L 74.83883 54.490551 
L 76.187488 62.918106 
L 77.536146 73.066462 
L 79.221968 87.963645 
L 80.90779 104.860235 
L 83.267941 131.270653 
L 86.302421 167.901596 
L 90.685559 220.685507 
L 92.708545 242.872839 
L 94.394368 259.537772 
L 96.08019 273.984186 
L 97.428847 283.797697 
L 98.440341 290.074762 
L 99.788999 296.746287 
L 100.800492 300.412334 
L 101.474821 302.26949 
L 102.14915 303.616466 
L 102.486314 304.159209 
L 103.160643 304.731635 
L 103.834972 304.784204 
L 104.509301 304.316709 
L 105.18363 303.330991 
L 106.195123 300.830372 
L 106.869452 298.571754 
L 107.543781 295.81749 
L 108.555274 290.834939 
L 109.903932 282.497477 
L 111.252589 272.431926 
L 112.938412 257.625256 
L 114.624234 240.805239 
L 116.984385 214.471483 
L 120.018865 177.883183 
L 124.402002 125.04221 
L 126.424989 102.784 
L 128.110811 86.048594 
L 129.796633 71.500128 
L 131.145291 61.601674 
L 132.156785 55.267978 
L 133.505442 48.500468 
L 134.516936 44.746471 
L 135.191264 42.837869 
L 135.865593 41.4388 
L 136.202758 40.882831 
L 136.877087 40.25774 
L 137.551416 40.152325 
L 138.225744 40.566997 
L 138.900073 41.500127 
L 139.574402 42.948043 
L 140.585895 46.11807 
L 141.260224 48.822485 
L 142.271718 53.743895 
L 143.620375 61.989106 
L 144.969033 71.969581 
L 146.654855 86.674125 
L 148.340677 103.423411 
L 150.700829 129.673334 
L 153.735308 166.218379 
L 158.455611 222.987219 
L 160.815762 248.381409 
L 162.501584 264.393098 
L 164.187406 278.097256 
L 165.536064 287.231216 
L 166.547557 292.939855 
L 167.55905 297.515324 
L 168.570544 301.055594 
L 169.582037 303.387592 
L 170.256366 304.324138 
L 170.59353 304.634513 
L 171.267859 304.792759 
L 171.942188 304.430907 
L 172.616517 303.550382 
L 173.290846 302.154646 
L 174.302339 299.07392 
L 174.976668 296.419439 
L 175.988161 291.559211 
L 177.336819 283.40648 
L 178.685477 273.511367 
L 180.371299 258.90957 
L 182.057121 242.231321 
L 184.417272 216.066253 
L 187.451752 179.565343 
L 192.172054 122.739065 
L 194.532205 97.250784 
L 196.218028 81.164413 
L 197.90385 67.35211 
L 199.252508 58.129994 
L 200.264001 52.362826 
L 201.275494 47.701781 
L 202.286987 44.098208 
L 202.961316 42.339999 
L 203.635645 41.093284 
L 204.309974 40.362963 
L 204.984303 40.151903 
L 205.658632 40.460935 
L 206.332961 41.288841 
L 207.00729 42.632365 
L 207.681618 44.486227 
L 208.693112 48.228098 
L 209.704605 53.027103 
L 211.053263 61.087122 
L 212.401921 70.896587 
L 214.087743 85.39502 
L 215.773565 102.001925 
L 217.796552 124.188614 
L 220.831031 160.403083 
L 226.225662 225.243315 
L 228.248649 247.000337 
L 229.934471 263.161078 
L 231.620293 277.080935 
L 232.968951 286.390931 
L 233.980445 292.216558 
L 234.991938 296.962942 
L 236.003431 300.62977 
L 236.67776 302.439465 
L 237.352089 303.738308 
L 238.026418 304.521196 
L 238.700747 304.785052 
L 239.375076 304.52884 
L 240.049404 303.753568 
L 240.723733 302.462286 
L 241.398062 300.660069 
L 242.409555 297.006261 
L 243.421049 292.268526 
L 244.432542 286.455936 
L 245.7812 277.159101 
L 247.129858 266.21792 
L 248.81568 250.497606 
L 250.838666 229.13819 
L 253.535982 197.690063 
L 260.616435 112.949092 
L 262.639422 91.901829 
L 264.325244 76.505712 
L 265.673902 65.866889 
L 267.022559 56.902523 
L 268.034053 51.362369 
L 269.045546 46.895825 
L 270.057039 43.535765 
L 270.731368 41.928738 
L 271.405697 40.834815 
L 272.080026 40.258297 
L 272.41719 40.167734 
L 272.754355 40.201451 
L 273.428684 40.664502 
L 274.103013 41.64563 
L 274.777341 43.140981 
L 275.45167 45.144677 
L 276.463164 49.089374 
L 277.474657 54.117297 
L 278.48615 60.199165 
L 279.834808 69.836479 
L 281.183466 81.085825 
L 282.869288 97.139948 
L 284.892275 118.809952 
L 287.58959 150.506349 
L 294.332879 231.243505 
L 296.355865 252.375621 
L 298.041688 267.851205 
L 299.390345 278.570335 
L 300.739003 287.622958 
L 301.750496 293.245537 
L 302.76199 297.77388 
L 303.773483 301.222641 
L 304.447812 302.881554 
L 305.122141 304.027884 
L 305.79647 304.657125 
L 306.470799 304.766803 
L 307.145127 304.356483 
L 307.819456 303.427779 
L 308.493785 301.98434 
L 309.168114 300.031837 
L 310.179607 296.149953 
L 311.191101 291.206495 
L 312.539758 282.970059 
L 313.888416 272.997995 
L 315.574238 258.321235 
L 317.260061 241.562629 
L 319.620212 215.331413 
L 322.991856 174.639938 
L 327.374994 122.017807 
L 329.735145 96.61126 
L 331.420967 80.601587 
L 333.106789 66.881317 
L 334.455447 57.740727 
L 335.46694 52.036006 
L 336.478433 47.445908 
L 337.489927 43.908619 
L 338.164256 42.197863 
L 338.838584 40.99915 
L 339.512913 40.317196 
L 340.187242 40.154681 
L 340.861571 40.512247 
L 341.5359 41.388488 
L 342.210229 42.779963 
L 343.221722 45.849372 
L 343.896051 48.500226 
L 344.907544 53.358969 
L 346.256202 61.504119 
L 347.60486 71.392264 
L 349.290682 85.985202 
L 350.976504 102.658384 
L 353.336655 128.816899 
L 356.371135 165.315387 
L 361.091437 222.148862 
L 363.451588 247.638291 
L 365.137411 263.73982 
L 366.823233 277.549517 
L 368.171891 286.777786 
L 369.183384 292.564362 
L 370.194877 297.216171 
L 371.20637 300.841811 
L 372.217864 303.253232 
L 372.892193 304.246053 
L 373.229357 304.590096 
L 373.903686 304.805455 
L 374.578015 304.500665 
L 375.252344 303.676924 
L 375.926673 302.337468 
L 376.938166 299.33215 
L 377.612495 296.731449 
L 378.623988 291.95767 
L 379.972646 283.904077 
L 381.321304 274.100173 
L 383.007126 259.591342 
L 384.692948 243.004298 
L 387.053099 216.919074 
L 390.087579 180.469201 
L 394.807881 123.571855 
L 397.168032 98.000101 
L 398.853854 81.807398 
L 400.539676 67.908524 
L 401.888334 58.592864 
L 402.899828 52.724722 
L 404.248485 46.615537 
L 405.259979 43.379643 
L 405.934307 41.820891 
L 406.608636 40.711446 
L 406.608636 40.711446 
" clip-path="url(#pc41e3f4ac6)" style="fill: none; stroke-dasharray: 7.4,3.2; stroke-dashoffset: 0; stroke: #0000ff; stroke-width: 2"/>
   </g>
   <g id="line2d_28">
    <path d="M 69.781364 40.114545 
L 70.118528 40.190722 
L 70.792857 40.767821 
L 71.467186 41.918736 
L 72.478679 44.77138 
L 73.153008 47.322561 
L 73.827337 50.413857 
L 74.83883 55.971807 
L 76.187488 65.188456 
L 77.87331 79.269341 
L 79.221968 92.250463 
L 80.90779 110.264866 
L 83.605106 142.189184 
L 91.359888 237.162895 
L 93.04571 254.992595 
L 94.731532 270.644085 
L 96.08019 281.3731 
L 97.091683 288.271912 
L 98.440341 295.672794 
L 99.451834 299.786993 
L 100.126163 301.877651 
L 100.800492 303.406394 
L 101.137656 304.011705 
L 101.811985 304.683737 
L 102.486314 304.779296 
L 103.160643 304.297886 
L 103.834972 303.24202 
L 104.509301 301.617189 
L 105.520794 298.082426 
L 106.195123 295.079725 
L 107.206616 289.637931 
L 108.555274 280.58064 
L 109.903932 269.701085 
L 111.589754 253.823298 
L 113.275576 235.924717 
L 115.635727 208.243105 
L 119.6817 157.58213 
L 122.71618 120.557873 
L 125.076331 94.536221 
L 126.762154 78.214209 
L 128.447976 64.390824 
L 129.459469 57.385851 
L 130.808127 49.815997 
L 131.81962 45.554202 
L 132.493949 43.371208 
L 133.168278 41.748548 
L 133.842607 40.694613 
L 134.179771 40.342299 
L 134.8541 40.150947 
L 135.528429 40.53663 
L 136.202758 41.497335 
L 136.877087 43.028062 
L 137.88858 46.411936 
L 138.562909 49.325654 
L 139.574402 54.650814 
L 140.92306 63.547667 
L 142.271718 74.282425 
L 143.95754 89.996979 
L 145.643362 107.77811 
L 148.003513 135.337441 
L 152.049486 185.955111 
L 155.421131 226.987203 
L 157.444117 249.251591 
L 159.129939 265.710607 
L 160.815762 279.719379 
L 162.164419 288.92901 
L 163.175913 294.567709 
L 164.187406 298.976399 
L 164.861735 301.251454 
L 165.536064 302.967825 
L 166.210393 304.116645 
L 166.547557 304.502822 
L 167.221886 304.789918 
L 167.896215 304.499988 
L 168.570544 303.634547 
L 169.244873 302.1981 
L 169.919201 300.198091 
L 170.930695 296.141312 
L 171.942188 290.933259 
L 173.290846 282.197909 
L 174.639504 271.609206 
L 176.325326 256.059969 
L 178.011148 238.397912 
L 180.371299 210.964065 
L 184.080108 164.643211 
L 187.788917 119.250647 
L 189.811903 96.854265 
L 191.497725 80.259809 
L 193.183548 66.067577 
L 194.532205 56.70048 
L 195.543699 50.94739 
L 196.555192 46.392525 
L 197.229521 44.025696 
L 197.90385 42.215829 
L 198.578179 40.972264 
L 199.252508 40.301455 
L 199.589672 40.169465 
L 199.926836 40.206896 
L 200.264001 40.363624 
L 200.93833 41.133708 
L 201.612659 42.475707 
L 202.286987 44.382661 
L 203.298481 48.29079 
L 204.309974 53.381265 
L 205.321467 59.637657 
L 206.670125 69.628228 
L 208.018783 81.341459 
L 209.704605 98.068872 
L 211.727592 120.600884 
L 214.424907 153.390176 
L 220.493867 228.299639 
L 222.516854 250.430406 
L 224.202676 266.722674 
L 225.551334 278.019745 
L 226.899991 287.543178 
L 227.911485 293.410127 
L 228.922978 298.110426 
L 229.934471 301.589696 
L 230.6088 303.211194 
L 231.283129 304.263876 
L 231.957458 304.742273 
L 232.294622 304.766598 
L 232.631787 304.643892 
L 232.968951 304.380022 
L 233.64328 303.418556 
L 234.317609 301.887199 
L 234.991938 299.793875 
L 236.003431 295.622254 
L 237.014924 290.263177 
L 238.026418 283.767711 
L 239.375076 273.474838 
L 240.723733 261.493881 
L 242.409555 244.482529 
L 244.432542 221.700306 
L 247.467022 184.492628 
L 252.524489 121.857063 
L 254.88464 95.672895 
L 256.570462 79.225757 
L 257.91912 67.78994 
L 259.267777 58.111313 
L 260.279271 52.13104 
L 261.290764 47.28607 
L 262.302257 43.682719 
L 262.976586 41.967642 
L 263.650915 40.820157 
L 263.988079 40.446234 
L 264.662408 40.160145 
L 265.336737 40.451044 
L 266.011066 41.317416 
L 266.685395 42.754753 
L 267.359724 44.75561 
L 268.371217 48.805283 
L 269.38271 54.022737 
L 270.394204 60.408203 
L 271.742861 70.551324 
L 273.091519 82.399714 
L 274.777341 99.264949 
L 276.800328 121.92528 
L 279.834808 159.043156 
L 285.229439 225.707709 
L 287.252426 248.101716 
L 288.938248 264.701569 
L 290.62407 278.88289 
L 291.972728 288.247359 
L 292.984221 294.011137 
L 293.995714 298.551101 
L 294.670043 300.916487 
L 295.344372 302.724909 
L 296.018701 303.967035 
L 296.355865 304.402398 
L 297.030194 304.784228 
L 297.704523 304.589062 
L 298.378852 303.817917 
L 299.053181 302.474807 
L 299.72751 300.566694 
L 300.739003 296.639358 
L 301.750496 291.564369 
L 303.099154 282.988937 
L 304.447812 272.544823 
L 306.133634 257.14655 
L 307.819456 239.614793 
L 310.179607 212.299245 
L 313.888416 166.035072 
L 317.597225 120.539045 
L 319.620212 98.017022 
L 321.306034 81.266619 
L 322.991856 66.922818 
L 324.340514 57.402789 
L 325.352007 51.500865 
L 326.3635 46.840655 
L 327.037829 44.384007 
L 327.712158 42.482486 
L 328.386487 41.145892 
L 328.723651 40.649193 
L 329.39798 40.17165 
L 330.072309 40.271035 
L 330.746638 40.946829 
L 331.420967 42.195516 
L 332.095296 44.010614 
L 333.106789 47.81523 
L 334.118282 52.746933 
L 335.46694 61.16003 
L 336.815598 71.457114 
L 338.50142 86.70541 
L 340.187242 104.099885 
L 342.547393 131.295411 
L 345.919038 173.23417 
L 349.965011 223.09472 
L 351.987998 245.74235 
L 353.67382 262.641126 
L 355.359642 277.14601 
L 356.7083 286.820431 
L 357.719793 292.859567 
L 358.731286 297.639609 
L 359.405615 300.187195 
L 360.079944 302.181562 
L 360.754273 303.612443 
L 361.091437 304.17036 
L 361.765766 304.743577 
L 362.440095 304.740012 
L 363.114424 304.15968 
L 363.788753 303.005606 
L 364.463082 301.283782 
L 365.474575 297.602267 
L 366.148904 294.507429 
L 367.160397 288.93814 
L 368.509055 279.716536 
L 369.857713 268.689023 
L 371.543535 252.647625 
L 373.229357 234.627155 
L 375.926673 202.698741 
L 383.681455 107.73111 
L 385.367277 89.900886 
L 387.053099 74.261256 
L 388.401757 63.538076 
L 389.41325 56.63333 
L 390.761908 49.237531 
L 391.773401 45.141229 
L 392.44773 43.054279 
L 393.122059 41.5293 
L 393.459223 40.910298 
L 394.133552 40.241456 
L 394.807881 40.149174 
L 395.48221 40.633937 
L 396.156539 41.693221 
L 397.168032 44.41571 
L 397.842361 46.879556 
L 398.51669 49.885767 
L 399.528183 55.316415 
L 400.876841 64.381451 
L 402.562663 78.298608 
L 403.911321 91.164991 
L 405.597143 109.06026 
L 406.608636 120.617951 
L 406.608636 120.617951 
" clip-path="url(#pc41e3f4ac6)" style="fill: none; stroke: #ff0000; stroke-width: 2; stroke-linecap: square"/>
   </g>
   <g id="patch_3">
    <path d="M 52.94 318.04 
L 52.94 26.88 
" style="fill: none; stroke: #000000; stroke-width: 0.8; stroke-linejoin: miter; stroke-linecap: square"/>
   </g>
   <g id="patch_4">
    <path d="M 423.45 318.04 
L 423.45 26.88 
" style="fill: none; stroke: #000000; stroke-width: 0.8; stroke-linejoin: miter; stroke-linecap: square"/>
   </g>
   <g id="patch_5">
    <path d="M 52.94 318.04 
L 423.45 318.04 
" style="fill: none; stroke: #000000; stroke-width: 0.8; stroke-linejoin: miter; stroke-linecap: square"/>
   </g>
   <g id="patch_6">
    <path d="M 52.94 26.88 
L 423.45 26.88 
" style="fill: none; stroke: #000000; stroke-width: 0.8; stroke-linejoin: miter; stroke-linecap: square"/>
   </g>
   <g id="text_16">
    <!-- Linear vs Nonlinear Pendulum Dynamics -->
    <g transform="translate(116.902187 20.88) scale(0.12 -0.12)">
     <defs>
      <path id="DejaVuSans-4c" d="M 628 4666 
L 1259 4666 
L 1259 531 
L 3531 531 
L 3531 0 
L 628 0 
L 628 4666 
z
" transform="scale(0.015625)"/>
      <path id="DejaVuSans-61" d="M 2194 1759 
Q 1497 1759 1228 1600 
Q 959 1441 959 1056 
Q 959 750 1161 570 
Q 1363 391 1709 391 
Q 2188 391 2477 730 
Q 2766 1069 2766 1631 
L 2766 1759 
L 2194 1759 
z
M 3341 1997 
L 3341 0 
L 2766 0 
L 2766 531 
Q 2569 213 2275 61 
Q 1981 -91 1556 -91 
Q 1019 -91 701 211 
Q 384 513 384 1019 
Q 384 1609 779 1909 
Q 1175 2209 1959 2209 
L 2766 2209 
L 2766 2266 
Q 2766 2663 2505 2880 
Q 2244 3097 1772 3097 
Q 1472 3097 1187 3025 
Q 903 2953 641 2809 
L 641 3341 
Q 956 3463 1253 3523 
Q 1550 3584 1831 3584 
Q 2591 3584 2966 3190 
Q 3341 2797 3341 1997 
z
" transform="scale(0.015625)"/>
      <path id="DejaVuSans-76" d="M 191 3500 
L 800 3500 
L 1894 563 
L 2988 3500 
L 3597 3500 
L 2284 0 
L 1503 0 
L 191 3500 
z
" transform="scale(0.015625)"/>
      <path id="DejaVuSans-4e" d="M 628 4666 
L 1478 4666 
L 3547 763 
L 3547 4666 
L 4159 4666 
L 4159 0 
L 3309 0 
L 1241 3903 
L 1241 0 
L 628 0 
L 628 4666 
z
" transform="scale(0.015625)"/>
      <path id="DejaVuSans-6f" d="M 1959 3097 
Q 1497 3097 1228 2736 
Q 959 2375 959 1747 
Q 959 1119 1226 758 
Q 1494 397 1959 397 
Q 2419 397 2687 759 
Q 2956 1122 2956 1747 
Q 2956 2369 2687 2733 
Q 2419 3097 1959 3097 
z
M 1959 3584 
Q 2709 3584 3137 3096 
Q 3566 2609 3566 1747 
Q 3566 888 3137 398 
Q 2709 -91 1959 -91 
Q 1206 -91 779 398 
Q 353 888 353 1747 
Q 353 2609 779 3096 
Q 1206 3584 1959 3584 
z
" transform="scale(0.015625)"/>
      <path id="DejaVuSans-50" d="M 1259 4147 
L 1259 2394 
L 2053 2394 
Q 2494 2394 2734 2622 
Q 2975 2850 2975 3272 
Q 2975 3691 2734 3919 
Q 2494 4147 2053 4147 
L 1259 4147 
z
M 628 4666 
L 2053 4666 
Q 2838 4666 3239 4311 
Q 3641 3956 3641 3272 
Q 3641 2581 3239 2228 
Q 2838 1875 2053 1875 
L 1259 1875 
L 1259 0 
L 628 0 
L 628 4666 
z
" transform="scale(0.015625)"/>
      <path id="DejaVuSans-75" d="M 544 1381 
L 544 3500 
L 1119 3500 
L 1119 1403 
Q 1119 906 1312 657 
Q 1506 409 1894 409 
Q 2359 409 2629 706 
Q 2900 1003 2900 1516 
L 2900 3500 
L 3475 3500 
L 3475 0 
L 2900 0 
L 2900 538 
Q 2691 219 2414 64 
Q 2138 -91 1772 -91 
Q 1169 -91 856 284 
Q 544 659 544 1381 
z
M 1991 3584 
L 1991 3584 
z
" transform="scale(0.015625)"/>
      <path id="DejaVuSans-44" d="M 1259 4147 
L 1259 519 
L 2022 519 
Q 2988 519 3436 956 
Q 3884 1394 3884 2338 
Q 3884 3275 3436 3711 
Q 2988 4147 2022 4147 
L 1259 4147 
z
M 628 4666 
L 1925 4666 
Q 3281 4666 3915 4102 
Q 4550 3538 4550 2338 
Q 4550 1131 3912 565 
Q 3275 0 1925 0 
L 628 0 
L 628 4666 
z
" transform="scale(0.015625)"/>
      <path id="DejaVuSans-79" d="M 2059 -325 
Q 1816 -950 1584 -1140 
Q 1353 -1331 966 -1331 
L 506 -1331 
L 506 -850 
L 844 -850 
Q 1081 -850 1212 -737 
Q 1344 -625 1503 -206 
L 1606 56 
L 191 3500 
L 800 3500 
L 1894 763 
L 2988 3500 
L 3597 3500 
L 2059 -325 
z
" transform="scale(0.015625)"/>
      <path id="DejaVuSans-63" d="M 3122 3366 
L 3122 2828 
Q 2878 2963 2633 3030 
Q 2388 3097 2138 3097 
Q 1578 3097 1268 2742 
Q 959 2388 959 1747 
Q 959 1106 1268 751 
Q 1578 397 2138 397 
Q 2388 397 2633 464 
Q 2878 531 3122 666 
L 3122 134 
Q 2881 22 2623 -34 
Q 2366 -91 2075 -91 
Q 1284 -91 818 406 
Q 353 903 353 1747 
Q 353 2603 823 3093 
Q 1294 3584 2113 3584 
Q 2378 3584 2631 3529 
Q 2884 3475 3122 3366 
z
" transform="scale(0.015625)"/>
     </defs>
     <use xlink:href="#DejaVuSans-4c"/>
     <use xlink:href="#DejaVuSans-69" transform="translate(55.712891 0)"/>
     <use xlink:href="#DejaVuSans-6e" transform="translate(83.496094 0)"/>
     <use xlink:href="#DejaVuSans-65" transform="translate(146.875 0)"/>
     <use xlink:href="#DejaVuSans-61" transform="translate(208.398438 0)"/>
     <use xlink:href="#DejaVuSans-72" transform="translate(269.677734 0)"/>
     <use xlink:href="#DejaVuSans-20" transform="translate(310.791016 0)"/>
     <use xlink:href="#DejaVuSans-76" transform="translate(342.578125 0)"/>
     <use xlink:href="#DejaVuSans-73" transform="translate(401.757812 0)"/>
     <use xlink:href="#DejaVuSans-20" transform="translate(453.857422 0)"/>
     <use xlink:href="#DejaVuSans-4e" transform="translate(485.644531 0)"/>
     <use xlink:href="#DejaVuSans-6f" transform="translate(560.449219 0)"/>
     <use xlink:href="#DejaVuSans-6e" transform="translate(621.630859 0)"/>
     <use xlink:href="#DejaVuSans-6c" transform="translate(685.009766 0)"/>
     <use xlink:href="#DejaVuSans-69" transform="translate(712.792969 0)"/>
     <use xlink:href="#DejaVuSans-6e" transform="translate(740.576172 0)"/>
     <use xlink:href="#DejaVuSans-65" transform="translate(803.955078 0)"/>
     <use xlink:href="#DejaVuSans-61" transform="translate(865.478516 0)"/>
     <use xlink:href="#DejaVuSans-72" transform="translate(926.757812 0)"/>
     <use xlink:href="#DejaVuSans-20" transform="translate(967.871094 0)"/>
     <use xlink:href="#DejaVuSans-50" transform="translate(999.658203 0)"/>
     <use xlink:href="#DejaVuSans-65" transform="translate(1056.335938 0)"/>
     <use xlink:href="#DejaVuSans-6e" transform="translate(1117.859375 0)"/>
     <use xlink:href="#DejaVuSans-64" transform="translate(1181.238281 0)"/>
     <use xlink:href="#DejaVuSans-75" transform="translate(1244.714844 0)"/>
     <use xlink:href="#DejaVuSans-6c" transform="translate(1308.09375 0)"/>
     <use xlink:href="#DejaVuSans-75" transform="translate(1335.876953 0)"/>
     <use xlink:href="#DejaVuSans-6d" transform="translate(1399.255859 0)"/>
     <use xlink:href="#DejaVuSans-20" transform="translate(1496.667969 0)"/>
     <use xlink:href="#DejaVuSans-44" transform="translate(1528.455078 0)"/>
     <use xlink:href="#DejaVuSans-79" transform="translate(1605.457031 0)"/>
     <use xlink:href="#DejaVuSans-6e" transform="translate(1664.636719 0)"/>
     <use xlink:href="#DejaVuSans-61" transform="translate(1728.015625 0)"/>
     <use xlink:href="#DejaVuSans-6d" transform="translate(1789.294922 0)"/>
     <use xlink:href="#DejaVuSans-69" transform="translate(1886.707031 0)"/>
     <use xlink:href="#DejaVuSans-63" transform="translate(1914.490234 0)"/>
     <use xlink:href="#DejaVuSans-73" transform="translate(1969.470703 0)"/>
    </g>
   </g>
   <g id="legend_1">
    <g id="patch_7">
     <path d="M 282.667188 188.638125 
L 416.45 188.638125 
Q 418.45 188.638125 418.45 186.638125 
L 418.45 158.281875 
Q 418.45 156.281875 416.45 156.281875 
L 282.667188 156.281875 
Q 280.667188 156.281875 280.667188 158.281875 
L 280.667188 186.638125 
Q 280.667188 188.638125 282.667188 188.638125 
z
" style="fill: #ffffff; opacity: 0.8; stroke: #cccccc; stroke-linejoin: miter"/>
    </g>
    <g id="line2d_29">
     <path d="M 284.667188 164.380313 
L 294.667188 164.380313 
L 304.667188 164.380313 
" style="fill: none; stroke-dasharray: 7.4,3.2; stroke-dashoffset: 0; stroke: #0000ff; stroke-width: 2"/>
    </g>
    <g id="text_17">
     <!-- Linear pendulum -->
     <g transform="translate(312.667188 167.880313) scale(0.1 -0.1)">
      <defs>
       <path id="DejaVuSans-70" d="M 1159 525 
L 1159 -1331 
L 581 -1331 
L 581 3500 
L 1159 3500 
L 1159 2969 
Q 1341 3281 1617 3432 
Q 1894 3584 2278 3584 
Q 2916 3584 3314 3078 
Q 3713 2572 3713 1747 
Q 3713 922 3314 415 
Q 2916 -91 2278 -91 
Q 1894 -91 1617 61 
Q 1341 213 1159 525 
z
M 3116 1747 
Q 3116 2381 2855 2742 
Q 2594 3103 2138 3103 
Q 1681 3103 1420 2742 
Q 1159 2381 1159 1747 
Q 1159 1113 1420 752 
Q 1681 391 2138 391 
Q 2594 391 2855 752 
Q 3116 1113 3116 1747 
z
" transform="scale(0.015625)"/>
      </defs>
      <use xlink:href="#DejaVuSans-4c"/>
      <use xlink:href="#DejaVuSans-69" transform="translate(55.712891 0)"/>
      <use xlink:href="#DejaVuSans-6e" transform="translate(83.496094 0)"/>
      <use xlink:href="#DejaVuSans-65" transform="translate(146.875 0)"/>
      <use xlink:href="#DejaVuSans-61" transform="translate(208.398438 0)"/>
      <use xlink:href="#DejaVuSans-72" transform="translate(269.677734 0)"/>
      <use xlink:href="#DejaVuSans-20" transform="translate(310.791016 0)"/>
      <use xlink:href="#DejaVuSans-70" transform="translate(342.578125 0)"/>
      <use xlink:href="#DejaVuSans-65" transform="translate(406.054688 0)"/>
      <use xlink:href="#DejaVuSans-6e" transform="translate(467.578125 0)"/>
      <use xlink:href="#DejaVuSans-64" transform="translate(530.957031 0)"/>
      <use xlink:href="#DejaVuSans-75" transform="translate(594.433594 0)"/>
      <use xlink:href="#DejaVuSans-6c" transform="translate(657.8125 0)"/>
      <use xlink:href="#DejaVuSans-75" transform="translate(685.595703 0)"/>
      <use xlink:href="#DejaVuSans-6d" transform="translate(748.974609 0)"/>
     </g>
    </g>
    <g id="line2d_30">
     <path d="M 284.667188 179.058437 
L 294.667188 179.058437 
L 304.667188 179.058437 
" style="fill: none; stroke: #ff0000; stroke-width: 2; stroke-linecap: square"/>
    </g>
    <g id="text_18">
     <!-- Nonlinear pendulum -->
     <g transform="translate(312.667188 182.558437) scale(0.1 -0.1)">
      <use xlink:href="#DejaVuSans-4e"/>
      <use xlink:href="#DejaVuSans-6f" transform="translate(74.804688 0)"/>
      <use xlink:href="#DejaVuSans-6e" transform="translate(135.986328 0)"/>
      <use xlink:href="#DejaVuSans-6c" transform="translate(199.365234 0)"/>
      <use xlink:href="#DejaVuSans-69" transform="translate(227.148438 0)"/>
      <use xlink:href="#DejaVuSans-6e" transform="translate(254.931641 0)"/>
      <use xlink:href="#DejaVuSans-65" transform="translate(318.310547 0)"/>
      <use xlink:href="#DejaVuSans-61" transform="translate(379.833984 0)"/>
      <use xlink:href="#DejaVuSans-72" transform="translate(441.113281 0)"/>
      <use xlink:href="#DejaVuSans-20" transform="translate(482.226562 0)"/>
      <use xlink:href="#DejaVuSans-70" transform="translate(514.013672 0)"/>
      <use xlink:href="#DejaVuSans-65" transform="translate(577.490234 0)"/>
      <use xlink:href="#DejaVuSans-6e" transform="translate(639.013672 0)"/>
      <use xlink:href="#DejaVuSans-64" transform="translate(702.392578 0)"/>
      <use xlink:href="#DejaVuSans-75" transform="translate(765.869141 0)"/>
      <use xlink:href="#DejaVuSans-6c" transform="translate(829.248047 0)"/>
      <use xlink:href="#DejaVuSans-75" transform="translate(857.03125 0)"/>
      <use xlink:href="#DejaVuSans-6d" transform="translate(920.410156 0)"/>
     </g>
    </g>
   </g>
  </g>
  <g id="axes_2">
   <g id="patch_8">
    <path d="M 482.69 318.04 
L 853.2 318.04 
L 853.2 26.88 
L 482.69 26.88 
z
" style="fill: #ffffff"/>
   </g>
   <g id="matplotlib.axis_3">
    <g id="xtick_7">
     <g id="line2d_31">
      <path d="M 499.502299 318.04 
L 499.502299 26.88 
" clip-path="url(#p9f6d79bb47)" style="fill: none; stroke: #b0b0b0; stroke-opacity: 0.3; stroke-width: 0.8; stroke-linecap: square"/>
     </g>
     <g id="line2d_32">
      <g>
       <use xlink:href="#m4a07dff095" x="499.502299" y="318.04" style="stroke: #000000; stroke-width: 0.8"/>
      </g>
     </g>
     <g id="text_19">
      <!-- −60 -->
      <g transform="translate(488.949955 332.638438) scale(0.1 -0.1)">
       <use xlink:href="#DejaVuSans-2212"/>
       <use xlink:href="#DejaVuSans-36" transform="translate(83.789062 0)"/>
       <use xlink:href="#DejaVuSans-30" transform="translate(147.412109 0)"/>
      </g>
     </g>
    </g>
    <g id="xtick_8">
     <g id="line2d_33">
      <path d="M 555.645022 318.04 
L 555.645022 26.88 
" clip-path="url(#p9f6d79bb47)" style="fill: none; stroke: #b0b0b0; stroke-opacity: 0.3; stroke-width: 0.8; stroke-linecap: square"/>
     </g>
     <g id="line2d_34">
      <g>
       <use xlink:href="#m4a07dff095" x="555.645022" y="318.04" style="stroke: #000000; stroke-width: 0.8"/>
      </g>
     </g>
     <g id="text_20">
      <!-- −40 -->
      <g transform="translate(545.092678 332.638438) scale(0.1 -0.1)">
       <use xlink:href="#DejaVuSans-2212"/>
       <use xlink:href="#DejaVuSans-34" transform="translate(83.789062 0)"/>
       <use xlink:href="#DejaVuSans-30" transform="translate(147.412109 0)"/>
      </g>
     </g>
    </g>
    <g id="xtick_9">
     <g id="line2d_35">
      <path d="M 611.787745 318.04 
L 611.787745 26.88 
" clip-path="url(#p9f6d79bb47)" style="fill: none; stroke: #b0b0b0; stroke-opacity: 0.3; stroke-width: 0.8; stroke-linecap: square"/>
     </g>
     <g id="line2d_36">
      <g>
       <use xlink:href="#m4a07dff095" x="611.787745" y="318.04" style="stroke: #000000; stroke-width: 0.8"/>
      </g>
     </g>
     <g id="text_21">
      <!-- −20 -->
      <g transform="translate(601.235401 332.638438) scale(0.1 -0.1)">
       <use xlink:href="#DejaVuSans-2212"/>
       <use xlink:href="#DejaVuSans-32" transform="translate(83.789062 0)"/>
       <use xlink:href="#DejaVuSans-30" transform="translate(147.412109 0)"/>
      </g>
     </g>
    </g>
    <g id="xtick_10">
     <g id="line2d_37">
      <path d="M 667.930468 318.04 
L 667.930468 26.88 
" clip-path="url(#p9f6d79bb47)" style="fill: none; stroke: #b0b0b0; stroke-opacity: 0.3; stroke-width: 0.8; stroke-linecap: square"/>
     </g>
     <g id="line2d_38">
      <g>
       <use xlink:href="#m4a07dff095" x="667.930468" y="318.04" style="stroke: #000000; stroke-width: 0.8"/>
      </g>
     </g>
     <g id="text_22">
      <!-- 0 -->
      <g transform="translate(664.749218 332.638438) scale(0.1 -0.1)">
       <use xlink:href="#DejaVuSans-30"/>
      </g>
     </g>
    </g>
    <g id="xtick_11">
     <g id="line2d_39">
      <path d="M 724.073191 318.04 
L 724.073191 26.88 
" clip-path="url(#p9f6d79bb47)" style="fill: none; stroke: #b0b0b0; stroke-opacity: 0.3; stroke-width: 0.8; stroke-linecap: square"/>
     </g>
     <g id="line2d_40">
      <g>
       <use xlink:href="#m4a07dff095" x="724.073191" y="318.04" style="stroke: #000000; stroke-width: 0.8"/>
      </g>
     </g>
     <g id="text_23">
      <!-- 20 -->
      <g transform="translate(717.710691 332.638438) scale(0.1 -0.1)">
       <use xlink:href="#DejaVuSans-32"/>
       <use xlink:href="#DejaVuSans-30" transform="translate(63.623047 0)"/>
      </g>
     </g>
    </g>
    <g id="xtick_12">
     <g id="line2d_41">
      <path d="M 780.215913 318.04 
L 780.215913 26.88 
" clip-path="url(#p9f6d79bb47)" style="fill: none; stroke: #b0b0b0; stroke-opacity: 0.3; stroke-width: 0.8; stroke-linecap: square"/>
     </g>
     <g id="line2d_42">
      <g>
       <use xlink:href="#m4a07dff095" x="780.215913" y="318.04" style="stroke: #000000; stroke-width: 0.8"/>
      </g>
     </g>
     <g id="text_24">
      <!-- 40 -->
      <g transform="translate(773.853413 332.638438) scale(0.1 -0.1)">
       <use xlink:href="#DejaVuSans-34"/>
       <use xlink:href="#DejaVuSans-30" transform="translate(63.623047 0)"/>
      </g>
     </g>
    </g>
    <g id="xtick_13">
     <g id="line2d_43">
      <path d="M 836.358636 318.04 
L 836.358636 26.88 
" clip-path="url(#p9f6d79bb47)" style="fill: none; stroke: #b0b0b0; stroke-opacity: 0.3; stroke-width: 0.8; stroke-linecap: square"/>
     </g>
     <g id="line2d_44">
      <g>
       <use xlink:href="#m4a07dff095" x="836.358636" y="318.04" style="stroke: #000000; stroke-width: 0.8"/>
      </g>
     </g>
     <g id="text_25">
      <!-- 60 -->
      <g transform="translate(829.996136 332.638438) scale(0.1 -0.1)">
       <use xlink:href="#DejaVuSans-36"/>
       <use xlink:href="#DejaVuSans-30" transform="translate(63.623047 0)"/>
      </g>
     </g>
    </g>
    <g id="text_26">
     <!-- Angle (degrees) -->
     <g transform="translate(628.099687 346.316563) scale(0.1 -0.1)">
      <use xlink:href="#DejaVuSans-41"/>
      <use xlink:href="#DejaVuSans-6e" transform="translate(68.408203 0)"/>
      <use xlink:href="#DejaVuSans-67" transform="translate(131.787109 0)"/>
      <use xlink:href="#DejaVuSans-6c" transform="translate(195.263672 0)"/>
      <use xlink:href="#DejaVuSans-65" transform="translate(223.046875 0)"/>
      <use xlink:href="#DejaVuSans-20" transform="translate(284.570312 0)"/>
      <use xlink:href="#DejaVuSans-28" transform="translate(316.357422 0)"/>
      <use xlink:href="#DejaVuSans-64" transform="translate(355.371094 0)"/>
      <use xlink:href="#DejaVuSans-65" transform="translate(418.847656 0)"/>
      <use xlink:href="#DejaVuSans-67" transform="translate(480.371094 0)"/>
      <use xlink:href="#DejaVuSans-72" transform="translate(543.847656 0)"/>
      <use xlink:href="#DejaVuSans-65" transform="translate(582.710938 0)"/>
      <use xlink:href="#DejaVuSans-65" transform="translate(644.234375 0)"/>
      <use xlink:href="#DejaVuSans-73" transform="translate(705.757812 0)"/>
      <use xlink:href="#DejaVuSans-29" transform="translate(757.857422 0)"/>
     </g>
    </g>
   </g>
   <g id="matplotlib.axis_4">
    <g id="ytick_8">
     <g id="line2d_45">
      <path d="M 482.69 309.632576 
L 853.2 309.632576 
" clip-path="url(#p9f6d79bb47)" style="fill: none; stroke: #b0b0b0; stroke-opacity: 0.3; stroke-width: 0.8; stroke-linecap: square"/>
     </g>
     <g id="line2d_46">
      <g>
       <use xlink:href="#md2d4597996" x="482.69" y="309.632576" style="stroke: #000000; stroke-width: 0.8"/>
      </g>
     </g>
     <g id="text_27">
      <!-- −200 -->
      <g transform="translate(448.222812 313.431795) scale(0.1 -0.1)">
       <use xlink:href="#DejaVuSans-2212"/>
       <use xlink:href="#DejaVuSans-32" transform="translate(83.789062 0)"/>
       <use xlink:href="#DejaVuSans-30" transform="translate(147.412109 0)"/>
       <use xlink:href="#DejaVuSans-30" transform="translate(211.035156 0)"/>
      </g>
     </g>
    </g>
    <g id="ytick_9">
     <g id="line2d_47">
      <path d="M 482.69 275.338833 
L 853.2 275.338833 
" clip-path="url(#p9f6d79bb47)" style="fill: none; stroke: #b0b0b0; stroke-opacity: 0.3; stroke-width: 0.8; stroke-linecap: square"/>
     </g>
     <g id="line2d_48">
      <g>
       <use xlink:href="#md2d4597996" x="482.69" y="275.338833" style="stroke: #000000; stroke-width: 0.8"/>
      </g>
     </g>
     <g id="text_28">
      <!-- −150 -->
      <g transform="translate(448.222812 279.138052) scale(0.1 -0.1)">
       <defs>
        <path id="DejaVuSans-35" d="M 691 4666 
L 3169 4666 
L 3169 4134 
L 1269 4134 
L 1269 2991 
Q 1406 3038 1543 3061 
Q 1681 3084 1819 3084 
Q 2600 3084 3056 2656 
Q 3513 2228 3513 1497 
Q 3513 744 3044 326 
Q 2575 -91 1722 -91 
Q 1428 -91 1123 -41 
Q 819 9 494 109 
L 494 744 
Q 775 591 1075 516 
Q 1375 441 1709 441 
Q 2250 441 2565 725 
Q 2881 1009 2881 1497 
Q 2881 1984 2565 2268 
Q 2250 2553 1709 2553 
Q 1456 2553 1204 2497 
Q 953 2441 691 2322 
L 691 4666 
z
" transform="scale(0.015625)"/>
       </defs>
       <use xlink:href="#DejaVuSans-2212"/>
       <use xlink:href="#DejaVuSans-31" transform="translate(83.789062 0)"/>
       <use xlink:href="#DejaVuSans-35" transform="translate(147.412109 0)"/>
       <use xlink:href="#DejaVuSans-30" transform="translate(211.035156 0)"/>
      </g>
     </g>
    </g>
    <g id="ytick_10">
     <g id="line2d_49">
      <path d="M 482.69 241.04509 
L 853.2 241.04509 
" clip-path="url(#p9f6d79bb47)" style="fill: none; stroke: #b0b0b0; stroke-opacity: 0.3; stroke-width: 0.8; stroke-linecap: square"/>
     </g>
     <g id="line2d_50">
      <g>
       <use xlink:href="#md2d4597996" x="482.69" y="241.04509" style="stroke: #000000; stroke-width: 0.8"/>
      </g>
     </g>
     <g id="text_29">
      <!-- −100 -->
      <g transform="translate(448.222812 244.844309) scale(0.1 -0.1)">
       <use xlink:href="#DejaVuSans-2212"/>
       <use xlink:href="#DejaVuSans-31" transform="translate(83.789062 0)"/>
       <use xlink:href="#DejaVuSans-30" transform="translate(147.412109 0)"/>
       <use xlink:href="#DejaVuSans-30" transform="translate(211.035156 0)"/>
      </g>
     </g>
    </g>
    <g id="ytick_11">
     <g id="line2d_51">
      <path d="M 482.69 206.751347 
L 853.2 206.751347 
" clip-path="url(#p9f6d79bb47)" style="fill: none; stroke: #b0b0b0; stroke-opacity: 0.3; stroke-width: 0.8; stroke-linecap: square"/>
     </g>
     <g id="line2d_52">
      <g>
       <use xlink:href="#md2d4597996" x="482.69" y="206.751347" style="stroke: #000000; stroke-width: 0.8"/>
      </g>
     </g>
     <g id="text_30">
      <!-- −50 -->
      <g transform="translate(454.585312 210.550566) scale(0.1 -0.1)">
       <use xlink:href="#DejaVuSans-2212"/>
       <use xlink:href="#DejaVuSans-35" transform="translate(83.789062 0)"/>
       <use xlink:href="#DejaVuSans-30" transform="translate(147.412109 0)"/>
      </g>
     </g>
    </g>
    <g id="ytick_12">
     <g id="line2d_53">
      <path d="M 482.69 172.457605 
L 853.2 172.457605 
" clip-path="url(#p9f6d79bb47)" style="fill: none; stroke: #b0b0b0; stroke-opacity: 0.3; stroke-width: 0.8; stroke-linecap: square"/>
     </g>
     <g id="line2d_54">
      <g>
       <use xlink:href="#md2d4597996" x="482.69" y="172.457605" style="stroke: #000000; stroke-width: 0.8"/>
      </g>
     </g>
     <g id="text_31">
      <!-- 0 -->
      <g transform="translate(469.3275 176.256823) scale(0.1 -0.1)">
       <use xlink:href="#DejaVuSans-30"/>
      </g>
     </g>
    </g>
    <g id="ytick_13">
     <g id="line2d_55">
      <path d="M 482.69 138.163862 
L 853.2 138.163862 
" clip-path="url(#p9f6d79bb47)" style="fill: none; stroke: #b0b0b0; stroke-opacity: 0.3; stroke-width: 0.8; stroke-linecap: square"/>
     </g>
     <g id="line2d_56">
      <g>
       <use xlink:href="#md2d4597996" x="482.69" y="138.163862" style="stroke: #000000; stroke-width: 0.8"/>
      </g>
     </g>
     <g id="text_32">
      <!-- 50 -->
      <g transform="translate(462.965 141.963081) scale(0.1 -0.1)">
       <use xlink:href="#DejaVuSans-35"/>
       <use xlink:href="#DejaVuSans-30" transform="translate(63.623047 0)"/>
      </g>
     </g>
    </g>
    <g id="ytick_14">
     <g id="line2d_57">
      <path d="M 482.69 103.870119 
L 853.2 103.870119 
" clip-path="url(#p9f6d79bb47)" style="fill: none; stroke: #b0b0b0; stroke-opacity: 0.3; stroke-width: 0.8; stroke-linecap: square"/>
     </g>
     <g id="line2d_58">
      <g>
       <use xlink:href="#md2d4597996" x="482.69" y="103.870119" style="stroke: #000000; stroke-width: 0.8"/>
      </g>
     </g>
     <g id="text_33">
      <!-- 100 -->
      <g transform="translate(456.6025 107.669338) scale(0.1 -0.1)">
       <use xlink:href="#DejaVuSans-31"/>
       <use xlink:href="#DejaVuSans-30" transform="translate(63.623047 0)"/>
       <use xlink:href="#DejaVuSans-30" transform="translate(127.246094 0)"/>
      </g>
     </g>
    </g>
    <g id="ytick_15">
     <g id="line2d_59">
      <path d="M 482.69 69.576376 
L 853.2 69.576376 
" clip-path="url(#p9f6d79bb47)" style="fill: none; stroke: #b0b0b0; stroke-opacity: 0.3; stroke-width: 0.8; stroke-linecap: square"/>
     </g>
     <g id="line2d_60">
      <g>
       <use xlink:href="#md2d4597996" x="482.69" y="69.576376" style="stroke: #000000; stroke-width: 0.8"/>
      </g>
     </g>
     <g id="text_34">
      <!-- 150 -->
      <g transform="translate(456.6025 73.375595) scale(0.1 -0.1)">
       <use xlink:href="#DejaVuSans-31"/>
       <use xlink:href="#DejaVuSans-35" transform="translate(63.623047 0)"/>
       <use xlink:href="#DejaVuSans-30" transform="translate(127.246094 0)"/>
      </g>
     </g>
    </g>
    <g id="ytick_16">
     <g id="line2d_61">
      <path d="M 482.69 35.282633 
L 853.2 35.282633 
" clip-path="url(#p9f6d79bb47)" style="fill: none; stroke: #b0b0b0; stroke-opacity: 0.3; stroke-width: 0.8; stroke-linecap: square"/>
     </g>
     <g id="line2d_62">
      <g>
       <use xlink:href="#md2d4597996" x="482.69" y="35.282633" style="stroke: #000000; stroke-width: 0.8"/>
      </g>
     </g>
     <g id="text_35">
      <!-- 200 -->
      <g transform="translate(456.6025 39.081852) scale(0.1 -0.1)">
       <use xlink:href="#DejaVuSans-32"/>
       <use xlink:href="#DejaVuSans-30" transform="translate(63.623047 0)"/>
       <use xlink:href="#DejaVuSans-30" transform="translate(127.246094 0)"/>
      </g>
     </g>
    </g>
    <g id="text_36">
     <!-- Angular velocity (deg/s) -->
     <g transform="translate(442.143125 232.236563) rotate(-90) scale(0.1 -0.1)">
      <defs>
       <path id="DejaVuSans-74" d="M 1172 4494 
L 1172 3500 
L 2356 3500 
L 2356 3053 
L 1172 3053 
L 1172 1153 
Q 1172 725 1289 603 
Q 1406 481 1766 481 
L 2356 481 
L 2356 0 
L 1766 0 
Q 1100 0 847 248 
Q 594 497 594 1153 
L 594 3053 
L 172 3053 
L 172 3500 
L 594 3500 
L 594 4494 
L 1172 4494 
z
" transform="scale(0.015625)"/>
       <path id="DejaVuSans-2f" d="M 1625 4666 
L 2156 4666 
L 531 -594 
L 0 -594 
L 1625 4666 
z
" transform="scale(0.015625)"/>
      </defs>
      <use xlink:href="#DejaVuSans-41"/>
      <use xlink:href="#DejaVuSans-6e" transform="translate(68.408203 0)"/>
      <use xlink:href="#DejaVuSans-67" transform="translate(131.787109 0)"/>
      <use xlink:href="#DejaVuSans-75" transform="translate(195.263672 0)"/>
      <use xlink:href="#DejaVuSans-6c" transform="translate(258.642578 0)"/>
      <use xlink:href="#DejaVuSans-61" transform="translate(286.425781 0)"/>
      <use xlink:href="#DejaVuSans-72" transform="translate(347.705078 0)"/>
      <use xlink:href="#DejaVuSans-20" transform="translate(388.818359 0)"/>
      <use xlink:href="#DejaVuSans-76" transform="translate(420.605469 0)"/>
      <use xlink:href="#DejaVuSans-65" transform="translate(479.785156 0)"/>
      <use xlink:href="#DejaVuSans-6c" transform="translate(541.308594 0)"/>
      <use xlink:href="#DejaVuSans-6f" transform="translate(569.091797 0)"/>
      <use xlink:href="#DejaVuSans-63" transform="translate(630.273438 0)"/>
      <use xlink:href="#DejaVuSans-69" transform="translate(685.253906 0)"/>
      <use xlink:href="#DejaVuSans-74" transform="translate(713.037109 0)"/>
      <use xlink:href="#DejaVuSans-79" transform="translate(752.246094 0)"/>
      <use xlink:href="#DejaVuSans-20" transform="translate(811.425781 0)"/>
      <use xlink:href="#DejaVuSans-28" transform="translate(843.212891 0)"/>
      <use xlink:href="#DejaVuSans-64" transform="translate(882.226562 0)"/>
      <use xlink:href="#DejaVuSans-65" transform="translate(945.703125 0)"/>
      <use xlink:href="#DejaVuSans-67" transform="translate(1007.226562 0)"/>
      <use xlink:href="#DejaVuSans-2f" transform="translate(1070.703125 0)"/>
      <use xlink:href="#DejaVuSans-73" transform="translate(1104.394531 0)"/>
      <use xlink:href="#DejaVuSans-29" transform="translate(1156.494141 0)"/>
     </g>
    </g>
   </g>
   <g id="line2d_63">
    <path d="M 836.358636 172.457605 
L 836.27007 176.497942 
L 835.602054 184.562344 
L 834.281651 192.579212 
L 832.307388 200.517018 
L 829.687023 208.344565 
L 826.430853 216.031083 
L 822.551673 223.546362 
L 818.06473 230.860859 
L 812.987658 237.945826 
L 807.340408 244.773412 
L 801.145178 251.316781 
L 794.426315 257.550213 
L 787.210226 263.449205 
L 779.525273 268.99057 
L 771.40166 274.152526 
L 762.871315 278.914783 
L 753.967768 283.258619 
L 744.726011 287.166961 
L 735.182369 290.624444 
L 725.374353 293.617477 
L 715.340513 296.134294 
L 705.120287 298.165 
L 694.753845 299.701612 
L 684.281932 300.738089 
L 673.745709 301.270354 
L 663.186588 301.296313 
L 652.646074 300.815863 
L 642.165596 299.83089 
L 631.786348 298.345263 
L 621.549127 296.364821 
L 611.494173 293.897344 
L 601.661006 290.952531 
L 592.088278 287.541954 
L 582.813616 283.679016 
L 573.873476 279.3789 
L 565.302999 274.658505 
L 557.135874 269.536385 
L 549.404202 264.032669 
L 542.138376 258.16899 
L 535.366956 251.968393 
L 529.116998 245.455018 
L 523.412781 238.654687 
L 518.27662 231.594192 
L 513.728702 224.301285 
L 509.786901 216.804632 
L 506.466707 209.133699 
L 503.781167 201.318639 
L 501.740837 193.390169 
L 500.353731 185.379453 
L 499.625301 177.317978 
L 499.558406 169.23743 
L 500.153307 161.16957 
L 501.407663 153.146109 
L 503.316542 145.198583 
L 505.872437 137.358232 
L 509.065301 129.65587 
L 512.882581 122.121772 
L 517.309271 114.78555 
L 522.327969 107.676039 
L 527.918947 100.821183 
L 534.060227 94.247923 
L 540.727669 87.982096 
L 547.895063 82.048328 
L 555.534236 76.46994 
L 563.61516 71.268859 
L 572.106072 66.465525 
L 580.973595 62.078816 
L 590.182873 58.125974 
L 599.697709 54.622534 
L 609.480703 51.582264 
L 619.4934 49.017112 
L 629.696446 46.93716 
L 640.049734 45.35058 
L 650.512572 44.263608 
L 661.043833 43.680513 
L 671.602125 43.603586 
L 682.145946 44.033127 
L 692.633854 44.967447 
L 703.024626 46.40287 
L 713.277421 48.333753 
L 723.35194 50.752506 
L 733.208585 53.649618 
L 742.808616 57.013702 
L 752.114299 60.831532 
L 761.08906 65.088101 
L 769.697624 69.766677 
L 777.906155 74.848869 
L 785.682391 80.314699 
L 792.995769 86.142683 
L 799.817545 92.309912 
L 806.120908 98.792145 
L 811.881082 105.5639 
L 817.07543 112.598562 
L 821.683537 119.868478 
L 825.687293 127.345074 
L 829.070963 134.99896 
L 831.821248 142.800054 
L 833.927342 150.71769 
L 835.380969 158.72075 
L 836.176417 166.777775 
L 836.310561 174.857097 
L 835.782877 182.926961 
L 834.595442 190.955645 
L 832.752925 198.911595 
L 830.262569 206.763539 
L 827.134166 214.480614 
L 823.380015 222.032489 
L 819.014873 229.389482 
L 814.0559 236.522676 
L 808.522589 243.404034 
L 802.436691 250.006509 
L 795.822129 256.304152 
L 788.704904 262.27221 
L 781.112992 267.887227 
L 773.076235 273.127133 
L 764.626223 277.971334 
L 755.79617 282.400792 
L 746.620786 286.398096 
L 737.136135 289.947537 
L 727.379499 293.035166 
L 717.389227 295.648847 
L 707.204588 297.77831 
L 696.865612 299.415185 
L 686.412939 300.55304 
L 675.887654 301.187405 
L 665.331127 301.315788 
L 654.784851 300.937686 
L 644.290279 300.054587 
L 633.88866 298.669963 
L 623.620878 296.789259 
L 613.52729 294.419867 
L 603.64757 291.571104 
L 594.020549 288.254167 
L 584.684066 284.482095 
L 575.674817 280.269717 
L 567.028214 275.63359 
L 558.77824 270.591938 
L 550.957322 265.164579 
L 543.596198 259.372848 
L 536.723801 253.239509 
L 530.367141 246.788671 
L 524.551201 240.045691 
L 519.298841 233.037073 
L 514.630702 225.790366 
L 510.565131 218.334054 
L 507.118107 210.697444 
L 504.303176 202.910554 
L 502.131401 195.003992 
L 500.611315 187.008833 
L 499.748892 178.956505 
L 499.54752 170.878657 
L 500.007987 162.807039 
L 501.128482 154.773379 
L 502.904599 146.809252 
L 505.329354 138.945961 
L 508.393216 131.214414 
L 512.084139 123.644998 
L 516.387614 116.267467 
L 521.286725 109.110816 
L 526.762213 102.203175 
L 532.792554 95.571694 
L 539.354046 89.242437 
L 546.420896 83.240281 
L 553.965325 77.588817 
L 561.957679 72.310257 
L 570.366542 67.425348 
L 579.158861 62.953289 
L 588.300076 58.911657 
L 597.754257 55.316335 
L 607.484242 52.181454 
L 617.451787 49.519336 
L 627.617712 47.340441 
L 637.942059 45.653333 
L 648.384248 44.464642 
L 658.903234 43.779039 
L 669.457673 43.599216 
L 680.006078 43.92588 
L 690.506989 44.757744 
L 700.919133 46.091538 
L 711.201583 47.922018 
L 721.313924 50.241987 
L 731.216409 53.042326 
L 740.870118 56.312025 
L 750.237105 60.038233 
L 759.280556 64.206302 
L 767.964924 68.799847 
L 776.256076 73.800813 
L 784.121425 79.189542 
L 791.530056 84.944851 
L 798.452852 91.044119 
L 804.862602 97.46337 
L 810.734114 104.177374 
L 816.044312 111.159739 
L 820.772325 118.383019 
L 824.899571 125.818824 
L 828.409829 133.437925 
L 831.289304 141.210375 
L 833.526678 149.105623 
L 835.113161 157.092636 
L 836.042518 165.140021 
L 836.311097 173.216146 
L 835.917845 181.289269 
L 834.86431 189.327656 
L 833.154634 197.299714 
L 830.795538 205.174107 
L 827.796297 212.919885 
L 824.168702 220.506604 
L 819.927012 227.904443 
L 815.087901 235.084325 
L 809.670392 242.018031 
L 803.695779 248.678307 
L 797.187548 255.038976 
L 790.17128 261.075037 
L 782.674555 266.762766 
L 774.726841 272.079809 
L 766.359377 277.005267 
L 757.605054 281.519781 
L 748.498281 285.605608 
L 739.074854 289.246689 
L 729.371814 292.428715 
L 719.427299 295.139178 
L 709.280398 297.367427 
L 698.970993 299.104705 
L 688.539607 300.344184 
L 678.027242 301.080994 
L 667.475217 301.31224 
L 656.925007 301.037014 
L 646.41808 300.2564 
L 635.995736 298.973466 
L 625.698938 297.193257 
L 615.568158 294.92277 
L 605.643217 292.170933 
L 595.963124 288.948561 
L 586.565926 285.268322 
L 577.488559 281.144682 
L 568.766701 276.593851 
L 560.434634 271.633716 
L 552.525106 266.283776 
L 548.749749 263.459272 
L 545.069204 260.565058 
L 541.532303 257.56523 
L 538.096234 254.500042 
L 534.811662 251.336656 
L 531.633602 248.112568 
L 528.614244 244.798033 
L 525.706709 241.427741 
L 522.964408 237.97506 
L 520.338848 234.471839 
L 517.884363 230.894556 
L 515.551119 227.272203 
L 513.394077 223.584349 
L 511.362337 219.85713 
L 509.511201 216.073173 
L 507.788966 212.255769 
L 506.250996 208.390551 
L 504.84505 204.497995 
L 503.626279 200.56668 
L 502.542157 196.614303 
L 501.647367 192.632311 
L 500.88934 188.635679 
L 500.32204 184.61863 
L 499.893091 180.593484 
L 499.655507 176.557137 
L 499.557327 172.519329 
L 499.65039 168.479517 
L 499.883364 164.44495 
L 500.306711 160.41752 
L 500.869921 156.402084 
L 501.621889 152.402834 
L 502.513118 148.422343 
L 503.590758 144.466961 
L 504.806494 140.537091 
L 506.205579 136.641094 
L 507.741034 132.777323 
L 509.456076 128.955993 
L 511.305202 125.173539 
L 513.329473 121.441865 
L 515.484988 117.755624 
L 517.810548 114.128246 
L 520.263961 110.552735 
L 522.881687 107.043881 
L 525.623337 103.593183 
L 528.522959 100.216618 
L 531.542048 96.904322 
L 534.712193 93.673292 
L 537.996829 90.512443 
L 541.425062 87.439621 
L 544.962308 84.442669 
L 548.635181 81.540109 
L 552.411107 78.718856 
L 556.314211 75.997944 
L 560.313946 73.363502 
L 564.431971 70.834911 
L 568.639761 68.397655 
L 572.956553 66.071305 
L 577.355827 63.840832 
L 581.854452 61.725849 
L 586.427883 59.710945 
L 591.090696 57.815624 
L 595.820271 56.024225 
L 600.62898 54.356001 
L 605.496073 52.795161 
L 610.431814 51.360579 
L 615.417257 50.036445 
L 620.460669 48.841131 
L 625.544827 47.758919 
L 630.676126 46.807563 
L 635.838974 45.971534 
L 641.038032 45.267868 
L 646.259238 44.681314 
L 651.50566 44.228098 
L 656.76466 43.89333 
L 662.037866 43.692341 
L 667.313948 43.610677 
L 672.593253 43.662705 
L 677.865638 43.834467 
L 683.130332 44.139306 
L 688.378255 44.563817 
L 693.607686 45.120273 
L 698.810479 45.79586 
L 703.984134 46.60175 
L 709.121305 47.525754 
L 714.21889 48.577915 
L 719.270208 49.746696 
L 724.271725 51.041002 
L 729.217295 52.449957 
L 734.103126 53.981331 
L 738.923471 55.62491 
L 743.674449 57.387344 
L 748.350585 59.259075 
L 752.948074 61.245657 
L 757.461583 63.338167 
L 761.887548 65.541103 
L 766.220655 67.846152 
L 770.457734 70.2568 
L 774.593374 72.76531 
L 778.624947 75.374214 
L 782.546831 78.076305 
L 786.357082 80.873232 
L 790.049765 83.758261 
L 793.623748 86.732239 
L 797.072686 89.788845 
L 800.396382 92.928207 
L 803.587992 96.144351 
L 806.648362 99.436784 
L 809.570074 102.7998 
L 812.355114 106.232387 
L 814.995421 109.72903 
L 817.494206 113.288307 
L 819.84271 116.904805 
L 822.045437 120.576809 
L 824.092888 124.29892 
L 825.990917 128.069248 
L 827.729251 131.882312 
L 829.315137 135.736173 
L 830.737508 139.625173 
L 832.00503 143.54745 
L 833.105836 147.49707 
L 834.050021 151.472377 
L 834.824927 155.46706 
L 835.442071 159.479803 
L 835.888025 163.503818 
L 836.175708 167.538255 
L 836.290952 171.575754 
L 836.248046 175.616061 
L 836.032128 179.651141 
L 835.6588 183.681468 
L 835.112569 187.698239 
L 834.410284 191.702775 
L 833.535892 195.685417 
L 832.507405 199.648455 
L 831.308295 203.581282 
L 829.95764 207.487275 
L 828.438535 211.354798 
L 826.771011 215.188426 
L 824.937893 218.975413 
L 822.96004 222.721635 
L 820.820129 226.413172 
L 818.539707 230.057295 
L 816.10143 233.638842 
L 813.527384 237.166569 
L 810.800344 240.624022 
L 807.942771 244.021516 
L 804.937708 247.341257 
L 801.807817 250.59519 
L 798.536567 253.764144 
L 795.146636 256.861753 
L 791.622081 259.86744 
L 787.985409 262.796573 
L 784.22143 265.627154 
L 780.352281 268.376321 
L 776.363703 271.02065 
L 772.277255 273.579066 
L 768.079786 276.026727 
L 763.792069 278.384357 
L 759.40224 280.62571 
L 754.930073 282.773306 
L 750.365173 284.799524 
L 745.7261 286.72866 
L 741.004107 288.531763 
L 736.216326 290.234873 
L 731.355836 291.807758 
L 726.438128 293.278161 
L 721.458285 294.614634 
L 716.42994 295.846562 
L 711.350356 296.941359 
L 706.231099 297.929979 
L 695.881692 299.520223 
L 685.422398 300.611042 
L 674.894327 301.198146 
L 664.338861 301.279228 
L 653.797488 300.853968 
L 643.311641 299.924035 
L 632.922538 298.493084 
L 622.671011 296.566738 
L 612.597357 294.152569 
L 602.741171 291.260062 
L 593.141193 287.900588 
L 583.835158 284.087348 
L 574.859643 279.835332 
L 566.24993 275.161249 
L 562.103639 272.662947 
L 558.039859 270.083471 
L 554.106505 267.391055 
L 550.261702 264.621956 
L 546.556776 261.746029 
L 542.946033 258.79817 
L 539.484126 255.750058 
L 536.121606 252.635002 
L 532.916355 249.42671 
L 529.815248 246.156676 
L 526.879275 242.80084 
L 524.051747 239.388656 
L 521.396616 235.898491 
L 518.853757 232.357542 
L 516.489927 228.746794 
L 514.241712 225.090971 
L 512.178492 221.37386 
L 510.233741 217.617502 
L 508.479257 213.808669 
L 506.845598 209.966512 
L 505.406761 206.080956 
L 504.090603 202.168072 
L 502.97308 198.221096 
L 501.979586 194.252834 
L 501.187779 190.259983 
L 500.520845 186.251909 
L 500.057873 182.228908 
L 499.720117 178.196744 
L 499.587804 174.159439 
L 499.58055 170.119003 
L 499.779417 166.083292 
L 500.102693 162.050433 
L 500.631959 158.032212 
L 501.284497 154.02275 
L 502.142077 150.037843 
L 503.121318 146.067506 
L 504.303836 142.131609 
L 505.605938 138.215972 
L 507.108737 134.344584 
L 508.728592 130.499006 
L 510.545754 126.707377 
L 512.477009 122.946943 
L 514.601377 119.250005 
L 516.836456 115.589467 
L 519.259665 112.001779 
L 521.789799 108.455496 
L 527.317572 101.573072 
L 533.398048 94.969248 
L 540.007328 88.669981 
L 547.119436 82.700031 
L 554.706419 77.082864 
L 562.738456 71.840561 
L 571.183978 66.993726 
L 580.009792 62.561413 
L 589.181206 58.561043 
L 598.662174 55.008341 
L 608.415431 51.917273 
L 618.40264 49.299989 
L 628.584549 47.166779 
L 638.921136 45.526027 
L 649.371774 44.384185 
L 659.895385 43.745742 
L 670.450606 43.613208 
L 680.99595 43.987106 
L 691.489967 44.865967 
L 701.891409 46.24634 
L 712.159393 48.122798 
L 722.25356 50.487968 
L 732.134233 53.332555 
L 741.762575 56.645379 
L 751.10074 60.41342 
L 760.112024 64.62187 
L 768.761007 69.254186 
L 777.013691 74.292164 
L 784.837638 79.716002 
L 792.202095 85.504383 
L 799.078113 91.634555 
L 805.438665 98.082425 
L 811.258748 104.822649 
L 816.515486 111.828736 
L 821.188214 119.073149 
L 825.258564 126.527414 
L 828.710537 134.162231 
L 831.530561 141.947592 
L 833.707552 149.852897 
L 835.23295 157.847074 
L 836.100757 165.898701 
L 836.307562 173.976131 
L 835.852549 182.047615 
L 834.737505 190.081428 
L 832.966811 198.045992 
L 830.547424 205.910002 
L 827.488853 213.642548 
L 823.803118 221.213235 
L 819.504703 228.592307 
L 814.610502 235.750759 
L 809.139751 242.660453 
L 803.11395 249.29423 
L 796.556784 255.626014 
L 789.494023 261.630918 
L 781.953428 267.285337 
L 773.964635 272.567045 
L 765.559043 277.455282 
L 756.76969 281.930832 
L 747.631123 285.976103 
L 738.179259 289.575194 
L 728.451249 292.713956 
L 718.485329 295.380051 
L 708.320669 297.562999 
L 697.997222 299.254217 
L 687.555565 300.447058 
L 677.036738 301.13683 
L 666.482086 301.320822 
L 655.933096 300.998308 
L 645.43123 300.170555 
L 635.017767 298.840814 
L 624.733637 297.014311 
L 614.619264 294.698223 
L 604.714404 291.901653 
L 595.057989 288.63559 
L 585.687974 284.912872 
L 576.64119 280.748128 
L 567.953197 276.157728 
L 559.658145 271.159713 
L 551.788639 265.773727 
L 544.375612 260.020938 
L 537.448203 253.923957 
L 531.033642 247.506748 
L 525.157144 240.794532 
L 519.841808 233.813692 
L 515.108528 226.591665 
L 510.975911 219.156838 
L 507.460201 211.538432 
L 504.575221 203.766392 
L 502.33231 195.871266 
L 500.740288 187.884085 
L 499.805414 179.836244 
L 499.531364 171.759374 
L 499.919218 163.685223 
L 500.967453 155.645526 
L 502.671952 147.671885 
L 505.026017 139.795639 
L 508.020397 132.047747 
L 511.643324 124.458665 
L 515.880562 117.05822 
L 520.715456 109.875503 
L 526.129006 102.938745 
L 532.099934 96.275213 
L 538.604773 89.9111 
L 545.617958 83.87142 
L 553.111924 78.179914 
L 561.057218 72.858955 
L 569.422611 67.929458 
L 578.175224 63.410799 
L 587.280656 59.320742 
L 596.703119 55.675363 
L 606.405577 52.488993 
L 616.349896 49.774157 
L 626.49699 47.541528 
L 636.806976 45.799883 
L 647.23933 44.556069 
L 657.753047 43.814977 
L 668.306804 43.579522 
L 678.859117 43.85063 
L 689.368511 44.627238 
L 699.793678 45.906295 
L 710.093639 47.682776 
L 720.227911 49.949698 
L 730.15666 52.698155 
L 739.840858 55.917345 
L 749.242441 59.594615 
L 758.324454 63.715514 
L 767.0512 68.263846 
L 775.388374 73.221735 
L 783.303207 78.569695 
L 790.764587 84.286707 
L 797.743186 90.350302 
L 804.211571 96.736646 
L 810.144316 103.420639 
L 815.518101 110.376011 
L 820.311801 117.575424 
L 824.506572 124.990581 
L 828.085926 132.592336 
L 831.035789 140.350813 
L 833.344566 148.235515 
L 835.00318 156.215452 
L 835.599062 160.230244 
L 835.599062 160.230244 
" clip-path="url(#p9f6d79bb47)" style="fill: none; stroke-dasharray: 7.4,3.2; stroke-dashoffset: 0; stroke: #0000ff; stroke-width: 2"/>
   </g>
   <g id="line2d_64">
    <path d="M 836.358636 172.457605 
L 836.2617 176.940618 
L 835.527323 185.883419 
L 834.062749 194.756262 
L 831.875592 203.513438 
L 828.977161 212.110561 
L 825.38233 220.505031 
L 821.109377 228.656457 
L 816.179786 236.527002 
L 810.618028 244.08166 
L 804.451318 251.288453 
L 797.709364 258.118551 
L 790.424103 264.546304 
L 782.629448 270.549214 
L 774.361025 276.107827 
L 765.65594 281.205578 
L 756.552539 285.828581 
L 747.090209 289.965394 
L 737.309179 293.606752 
L 727.25036 296.745298 
L 716.955195 299.375317 
L 706.465539 301.492481 
L 695.82355 303.093618 
L 685.071607 304.176522 
L 674.252235 304.739795 
L 663.408044 304.782739 
L 652.581675 304.305304 
L 641.815746 303.30808 
L 631.152802 301.792343 
L 620.635247 299.760161 
L 610.305283 297.214537 
L 600.204818 294.159596 
L 590.375371 290.600813 
L 580.857946 286.54526 
L 571.692894 282.001873 
L 562.91975 276.981724 
L 554.577042 271.498284 
L 546.70209 265.567669 
L 539.330776 259.208849 
L 532.497305 252.443819 
L 526.233952 245.297708 
L 520.570802 237.798828 
L 515.535492 229.978646 
L 511.152954 221.871683 
L 507.44517 213.515324 
L 504.430952 204.94956 
L 502.125741 196.216647 
L 500.541434 187.360704 
L 499.686253 178.427245 
L 499.564652 169.462682 
L 500.17726 160.513787 
L 501.520882 151.627149 
L 503.588528 142.848636 
L 506.369499 134.222878 
L 509.849506 125.792794 
L 514.010827 117.599158 
L 518.832501 109.680249 
L 524.290542 102.071553 
L 530.35818 94.80556 
L 537.006109 87.911626 
L 544.202748 81.415931 
L 551.914501 75.341491 
L 560.106013 69.708262 
L 568.740415 64.533279 
L 577.779554 59.830861 
L 587.184208 55.612846 
L 596.914278 51.888848 
L 606.928959 48.666526 
L 617.186889 45.951855 
L 627.646278 43.749383 
L 638.265011 42.062462 
L 649.000745 40.893451 
L 659.810973 40.243876 
L 670.653098 40.114545 
L 681.484481 40.505616 
L 692.262497 41.416605 
L 702.944589 42.846354 
L 713.488323 44.792931 
L 723.851462 47.253497 
L 733.992044 50.224124 
L 743.86848 53.699573 
L 753.439675 57.673049 
L 762.665161 62.135938 
L 771.50526 67.077537 
L 779.921266 72.484785 
L 787.87565 78.342019 
L 795.332279 84.63075 
L 802.256656 91.329495 
L 808.616174 98.413647 
L 814.380372 105.855425 
L 819.521192 113.623882 
L 824.013243 121.685 
L 827.834039 130.001856 
L 830.964232 138.534879 
L 833.387811 147.24217 
L 835.092285 156.0799 
L 836.068814 165.002759 
L 836.312315 173.964462 
L 835.821521 182.918269 
L 834.598995 191.817533 
L 832.651097 200.61624 
L 829.987916 209.269529 
L 826.623153 217.734177 
L 822.573966 225.96903 
L 817.86079 233.935381 
L 812.507118 241.597266 
L 806.539272 248.92169 
L 799.986149 255.87877 
L 792.878965 262.4418 
L 785.250994 268.58724 
L 777.137312 274.294631 
L 768.574548 279.546464 
L 759.600653 284.327977 
L 750.254682 288.626934 
L 740.576597 292.433365 
L 730.607095 295.7393 
L 720.387451 298.538497 
L 709.959392 300.826184 
L 699.364981 302.598822 
L 688.646531 303.853895 
L 677.846521 304.589747 
L 667.007539 304.805455 
L 656.172219 304.500755 
L 645.38319 303.676024 
L 634.683025 302.332305 
L 624.11418 300.471395 
L 613.718929 298.095974 
L 603.539285 295.209781 
L 593.616902 291.817823 
L 583.992966 287.926625 
L 574.708056 283.544485 
L 565.801989 278.681744 
L 557.313642 273.351059 
L 549.280753 267.567649 
L 541.739696 261.349523 
L 534.725253 254.71766 
L 528.270359 247.696141 
L 522.405844 240.312221 
L 517.160178 232.596323 
L 512.559208 224.581962 
L 508.625915 216.305588 
L 506.949014 212.070441 
L 505.38018 207.806348 
L 504.053938 203.477278 
L 502.838577 199.125773 
L 501.869804 194.724376 
L 501.01419 190.307394 
L 500.407895 185.856078 
L 499.916472 181.396298 
L 499.675803 176.918044 
L 499.551134 172.438636 
L 499.677344 167.956736 
L 499.920079 163.481101 
L 500.41251 159.01889 
L 501.021379 154.570382 
L 501.877473 150.150967 
L 502.849303 145.752626 
L 504.064625 141.398622 
L 505.394374 137.072913 
L 506.96267 132.806192 
L 508.643488 128.574761 
L 510.55675 124.416232 
L 512.580048 120.299689 
L 514.828603 116.269096 
L 517.184156 112.286828 
L 519.756769 108.402592 
L 522.432814 104.572611 
L 525.316799 100.851703 
L 528.300156 97.190536 
L 531.481502 93.648394 
L 534.757701 90.171008 
L 538.221197 86.821489 
L 541.774605 83.541262 
L 549.31792 77.325363 
L 557.352859 71.544272 
L 565.843035 66.215983 
L 574.750707 61.355701 
L 584.036991 56.97607 
L 593.662067 53.08742 
L 603.585352 49.698041 
L 613.765658 46.814448 
L 624.161328 44.441643 
L 634.730348 42.583359 
L 645.430445 41.242271 
L 656.21916 40.42017 
L 667.053923 40.118096 
L 677.892104 40.33642 
L 688.691069 41.074873 
L 699.408234 42.332523 
L 710.00112 44.107705 
L 720.42742 46.397895 
L 730.645072 49.19954 
L 740.612357 52.507854 
L 750.288004 56.31658 
L 754.994481 58.42089 
L 759.631327 60.617728 
L 764.155609 62.964142 
L 768.602371 65.40131 
L 772.924874 67.983949 
L 777.162095 70.655067 
L 781.263764 73.466819 
L 785.272561 76.36422 
L 789.134979 79.396616 
L 792.897154 82.511234 
L 796.502656 85.754356 
L 800.000815 89.075631 
L 803.33261 92.518031 
L 806.550291 96.03385 
L 809.592589 99.662506 
L 812.514386 103.359166 
L 815.252527 107.15947 
L 817.864225 111.02168 
L 820.284811 114.977459 
L 822.573511 118.988384 
L 824.664529 123.081967 
L 826.618775 127.223305 
L 828.369716 131.435626 
L 829.979609 135.687727 
L 831.381577 139.998469 
L 832.63888 144.340498 
L 833.684688 148.728268 
L 834.582915 153.138396 
L 835.267163 157.58094 
L 835.80165 162.036567 
L 836.120788 166.511007 
L 836.28875 170.98901 
L 836.241117 175.472095 
L 836.041677 179.949091 
L 835.62752 184.417475 
L 835.061721 188.870093 
L 834.283196 193.300596 
L 833.353986 197.705748 
L 832.215127 202.07563 
L 830.927329 206.410774 
L 829.434007 210.697982 
L 827.794262 214.941365 
L 825.954116 219.124767 
L 823.970808 223.255649 
L 821.793162 227.315237 
L 819.47633 231.31408 
L 816.972094 235.231137 
L 814.333322 239.079762 
L 811.514881 242.836998 
L 808.567185 246.518698 
L 805.448278 250.100343 
L 802.205982 253.599965 
L 798.801573 256.99182 
L 795.280179 260.295797 
L 791.60633 263.485252 
L 787.822386 266.581607 
L 783.896129 269.557617 
L 779.867101 272.435923 
L 775.706307 275.188954 
L 771.450458 277.840267 
L 767.073719 280.362215 
L 762.609985 282.778983 
L 758.036504 285.063065 
L 753.384387 287.239015 
L 748.63387 289.279653 
L 743.81334 291.209661 
L 738.905906 293.002349 
L 733.93731 294.682309 
L 728.893407 296.223475 
L 723.797391 297.650164 
L 718.637727 298.93704 
L 713.435169 300.107986 
L 708.180648 301.138482 
L 702.892605 302.051843 
L 697.564278 302.824435 
L 692.211935 303.478896 
L 686.830959 303.99253 
L 681.435588 304.387214 
L 676.023191 304.641234 
L 670.606121 304.77564 
L 665.183568 304.769732 
L 659.766157 304.643694 
L 654.354727 304.377866 
L 648.958331 303.99154 
L 643.579289 303.466119 
L 638.225239 302.819995 
L 632.899808 302.035655 
L 627.609381 301.130597 
L 622.358715 300.088412 
L 617.153097 298.92572 
L 611.998241 297.627237 
L 606.898493 296.208736 
L 601.860346 294.656073 
L 596.887352 292.984212 
L 591.986609 291.180171 
L 587.161026 289.258148 
L 582.418122 287.20634 
L 577.760305 285.038231 
L 573.195342 282.743208 
L 568.725275 280.334102 
L 564.357939 277.801495 
L 560.09514 275.157627 
L 555.944607 272.394276 
L 551.908033 269.523156 
L 547.992866 266.537227 
L 544.2008 263.447753 
L 540.538835 260.248847 
L 537.008772 256.951397 
L 533.616998 253.550631 
L 530.365517 250.057132 
L 527.25995 246.467187 
L 524.302587 242.791155 
L 521.498139 239.026302 
L 518.849257 235.18284 
L 516.359607 231.258919 
L 514.032266 227.264684 
L 511.869733 223.199053 
L 509.875566 219.07218 
L 508.050992 214.883616 
L 506.400086 210.6436 
L 504.922721 206.352169 
L 503.623514 202.019714 
L 502.500919 197.646593 
L 501.560109 193.243422 
L 500.79807 188.8107 
L 500.220539 184.359333 
L 499.823008 179.889776 
L 499.611764 175.413287 
L 499.580809 170.930088 
L 499.736957 166.451841 
L 500.072739 161.978349 
L 500.595462 157.52173 
L 501.296234 153.081183 
L 502.182807 148.669327 
L 503.244933 144.284581 
L 504.490754 139.940108 
L 505.908752 135.633382 
L 507.50739 131.378148 
L 509.273993 127.170791 
L 511.217267 123.025665 
L 513.323503 118.937942 
L 515.601565 114.922613 
L 518.036856 110.973528 
L 520.638299 107.106343 
L 523.390565 103.313501 
L 526.302535 99.611345 
L 529.358317 95.990848 
L 532.566639 92.46906 
L 535.911225 89.035446 
L 539.40053 85.70778 
L 543.018081 82.473999 
L 546.771939 79.352619 
L 550.64562 76.330047 
L 554.646665 73.425561 
L 558.758776 70.62405 
L 562.988836 67.945572 
L 567.320927 65.373524 
L 571.761139 62.928766 
L 576.29413 60.593237 
L 580.925052 58.388616 
L 585.639337 56.295431 
L 590.441052 54.336201 
L 595.316592 52.490085 
L 600.268793 50.780465 
L 605.285205 49.185178 
L 610.367276 47.728488 
L 615.503904 46.386959 
L 620.694992 45.185756 
L 625.930967 44.10021 
L 631.210034 43.156402 
L 636.524333 42.328477 
L 641.870208 41.643438 
L 647.241693 41.074279 
L 652.633113 40.648934 
L 658.040569 40.33928 
L 663.456207 40.174172 
L 668.878375 40.124406 
L 674.296878 40.219739 
L 679.71248 40.429921 
L 685.112489 40.785578 
L 690.500254 41.255452 
L 695.860433 41.870983 
L 701.199128 42.599952 
L 706.498193 43.474542 
L 711.766645 44.461622 
L 716.983396 45.594027 
L 722.160534 46.837781 
L 727.273894 48.226243 
L 732.338784 49.724684 
L 737.327844 51.366834 
L 742.259742 53.117317 
L 747.103816 55.010053 
L 751.882226 57.009151 
L 756.560918 59.148507 
L 761.165659 61.391881 
L 765.658938 63.772896 
L 770.070229 66.255157 
L 774.358514 68.871739 
L 778.557061 71.586318 
L 782.621325 74.431114 
L 786.588424 77.370136 
L 790.410297 80.434419 
L 794.127946 83.588598 
L 797.689834 86.862168 
L 801.140851 90.220719 
L 804.426059 93.691834 
L 807.594212 97.242413 
L 810.587072 100.897746 
L 813.4572 104.626423 
L 816.143204 108.451058 
L 818.701353 112.342325 
L 821.06728 116.319784 
L 823.300829 120.356601 
L 825.334871 124.468919 
L 827.232652 128.632804 
L 828.924533 132.860637 
L 830.476947 137.131787 
L 831.818026 141.454564 
L 833.017144 145.812023 
L 834.000515 150.208131 
L 834.840162 154.629986 
L 835.460725 159.076985 
L 835.936553 163.540594 
L 836.191074 168.01546 
L 836.30061 172.497702 
L 836.18776 176.97709 
L 835.930432 181.454624 
L 835.450799 185.915134 
L 834.827947 190.364677 
L 833.984033 194.78313 
L 832.998891 199.181721 
L 831.79508 203.535422 
L 830.45274 207.860685 
L 828.895248 212.127673 
L 827.2026 216.358055 
L 825.299407 220.517332 
L 823.265066 224.63232 
L 821.025829 228.664049 
L 818.660038 232.644354 
L 816.095986 236.530021 
L 813.410513 240.35773 
L 810.534336 244.080272 
L 807.542355 247.738953 
L 804.368079 251.282846 
L 801.084045 254.757624 
L 797.626906 258.108924 
L 794.066426 261.386509 
L 790.342737 264.532866 
L 786.522444 267.601548 
L 782.549467 270.532173 
L 778.486887 273.381779 
L 774.282706 276.087387 
L 769.996138 278.709212 
L 765.579542 281.181932 
L 761.087939 283.568641 
L 751.801172 287.947425 
L 742.175657 291.835231 
L 732.251976 295.223771 
L 722.071315 298.10653 
L 711.675332 300.478504 
L 701.106039 302.335959 
L 690.40571 303.676221 
L 679.616803 304.497496 
L 668.781889 304.798744 
L 657.943598 304.579592 
L 647.144562 303.840309 
L 636.427367 302.581822 
L 625.834493 300.805797 
L 615.408248 298.514756 
L 605.190693 295.712248 
L 595.22355 292.403058 
L 585.548091 288.593442 
L 576.205004 284.291388 
L 567.234245 279.506881 
L 558.674858 274.252179 
L 550.564784 268.542063 
L 542.940639 262.394067 
L 535.837484 255.828668 
L 529.288578 248.869431 
L 523.325117 241.543084 
L 517.975978 233.879529 
L 513.267462 225.91178 
L 509.22304 217.675817 
L 505.86312 209.210361 
L 503.204837 200.556576 
L 501.261865 191.75769 
L 500.044266 182.858569 
L 499.558376 173.905224 
L 499.80673 164.944297 
L 500.788035 156.022518 
L 502.497184 147.186163 
L 504.925315 138.480522 
L 508.059913 129.949409 
L 511.884947 121.6347 
L 516.38105 113.575948 
L 521.52572 105.81005 
L 527.293549 98.371003 
L 533.656468 91.289731 
L 540.584003 84.593995 
L 548.043538 78.308379 
L 556.000567 72.454349 
L 564.418952 67.050375 
L 573.261158 62.112106 
L 582.488474 57.65259 
L 592.061219 53.68252 
L 601.938925 50.210501 
L 612.080493 47.243318 
L 622.444334 44.786206 
L 632.988485 42.843089 
L 643.670708 41.416802 
L 654.44857 40.509273 
L 665.279515 40.121657 
L 676.120917 40.254434 
L 686.930139 40.907442 
L 697.664583 42.079868 
L 708.281748 43.770178 
L 718.739289 45.976006 
L 728.995097 48.693989 
L 739.007385 51.919568 
L 748.734797 55.646752 
L 758.136533 59.867865 
L 767.172503 64.573276 
L 775.803494 69.751128 
L 783.991364 75.38708 
L 791.699258 81.464073 
L 798.891835 87.962132 
L 805.535515 94.858214 
L 811.598736 102.126122 
L 817.052213 109.736475 
L 821.869197 117.656767 
L 826.025726 125.851494 
L 829.500862 134.282365 
L 832.27691 142.908594 
L 834.339608 151.687257 
L 835.678281 160.573722 
L 836.285969 169.522122 
L 836.159499 178.485873 
L 835.29953 187.418213 
L 833.710538 196.272744 
L 831.40077 205.003966 
L 828.382145 213.56778 
L 824.670124 221.921951 
L 820.283537 230.02651 
L 815.244384 237.844093 
L 809.577614 245.340205 
L 803.310873 252.4834 
L 796.47426 259.24539 
L 789.100058 265.601066 
L 781.222481 271.528451 
L 772.877417 277.008592 
L 764.102191 282.025389 
L 754.935336 286.565385 
L 745.416388 290.617517 
L 735.5857 294.172859 
L 725.484278 297.224344 
L 715.153643 299.766506 
L 704.635702 301.79522 
L 693.972658 303.30749 
L 683.206915 304.301251 
L 672.381017 304.775228 
L 661.537581 304.728834 
L 650.719248 304.162127 
L 639.968626 303.075806 
L 629.328239 301.471277 
L 618.840464 299.350755 
L 608.547455 296.717421 
L 598.491062 293.575617 
L 588.712724 289.931072 
L 579.253345 285.791159 
L 570.153148 281.16516 
L 561.451507 276.06454 
L 553.186761 270.503205 
L 545.395999 264.497743 
L 538.114834 258.06763 
L 531.377162 251.235389 
L 525.214901 244.026689 
L 519.65774 236.470384 
L 514.732871 228.598469 
L 510.46474 220.445968 
L 506.874808 212.050731 
L 503.981327 203.45316 
L 501.799144 194.69586 
L 500.339541 185.82322 
L 499.610105 176.880946 
L 499.614642 167.915553 
L 500.353131 158.97382 
L 501.821726 150.102255 
L 504.0128 141.346553 
L 506.915032 132.751089 
L 510.513537 124.358446 
L 514.790026 116.209003 
L 519.723006 108.340581 
L 525.287998 100.788173 
L 531.45778 93.583741 
L 538.202638 86.756104 
L 545.490627 80.330899 
L 553.287831 74.330612 
L 561.558618 68.774686 
L 570.265882 63.679677 
L 579.37127 59.059461 
L 588.835395 54.925474 
L 598.618025 51.286973 
L 608.678247 48.151308 
L 618.974616 45.524191 
L 629.465277 43.409944 
L 640.108071 41.811735 
L 650.860619 40.731769 
L 661.680394 40.17144 
L 672.524787 40.131443 
L 683.351155 40.611827 
L 694.116881 41.612001 
L 704.779421 43.130686 
L 715.296369 45.165813 
L 725.625525 47.714377 
L 735.724979 50.772251 
L 745.553215 54.333956 
L 755.069227 58.392418 
L 764.232665 62.938695 
L 773.003997 67.96171 
L 781.344693 73.447986 
L 789.217438 79.381399 
L 796.58635 85.74297 
L 803.417227 92.510693 
L 809.677797 99.659428 
L 815.337978 107.160849 
L 820.370141 114.983473 
L 824.749358 123.092767 
L 828.453654 131.451327 
L 831.464225 140.019144 
L 833.765642 148.753944 
L 835.346016 157.611594 
L 836.197139 166.546558 
L 836.31457 175.512411 
L 835.697694 184.462364 
L 834.349723 193.349817 
L 832.277664 202.128891 
L 829.49217 210.754929 
L 826.006996 219.184804 
L 821.84054 227.377885 
L 817.013793 235.295904 
L 811.550766 242.903388 
L 805.478257 250.167866 
L 798.825595 257.060001 
L 791.624383 263.553638 
L 783.908237 269.625783 
L 775.712532 275.256507 
L 767.074153 280.428801 
L 758.031266 285.128369 
L 748.623107 289.343398 
L 738.890623 293.065903 
L 733.915592 294.740386 
L 733.915592 294.740386 
" clip-path="url(#p9f6d79bb47)" style="fill: none; stroke: #ff0000; stroke-width: 2; stroke-linecap: square"/>
   </g>
   <g id="patch_9">
    <path d="M 482.69 318.04 
L 482.69 26.88 
" style="fill: none; stroke: #000000; stroke-width: 0.8; stroke-linejoin: miter; stroke-linecap: square"/>
   </g>
   <g id="patch_10">
    <path d="M 853.2 318.04 
L 853.2 26.88 
" style="fill: none; stroke: #000000; stroke-width: 0.8; stroke-linejoin: miter; stroke-linecap: square"/>
   </g>
   <g id="patch_11">
    <path d="M 482.69 318.04 
L 853.2 318.04 
" style="fill: none; stroke: #000000; stroke-width: 0.8; stroke-linejoin: miter; stroke-linecap: square"/>
   </g>
   <g id="patch_12">
    <path d="M 482.69 26.88 
L 853.2 26.88 
" style="fill: none; stroke: #000000; stroke-width: 0.8; stroke-linejoin: miter; stroke-linecap: square"/>
   </g>
   <g id="text_37">
    <!-- Phase Portraits -->
    <g transform="translate(622.945 20.88) scale(0.12 -0.12)">
     <defs>
      <path id="DejaVuSans-68" d="M 3513 2113 
L 3513 0 
L 2938 0 
L 2938 2094 
Q 2938 2591 2744 2837 
Q 2550 3084 2163 3084 
Q 1697 3084 1428 2787 
Q 1159 2491 1159 1978 
L 1159 0 
L 581 0 
L 581 4863 
L 1159 4863 
L 1159 2956 
Q 1366 3272 1645 3428 
Q 1925 3584 2291 3584 
Q 2894 3584 3203 3211 
Q 3513 2838 3513 2113 
z
" transform="scale(0.015625)"/>
     </defs>
     <use xlink:href="#DejaVuSans-50"/>
     <use xlink:href="#DejaVuSans-68" transform="translate(60.302734 0)"/>
     <use xlink:href="#DejaVuSans-61" transform="translate(123.681641 0)"/>
     <use xlink:href="#DejaVuSans-73" transform="translate(184.960938 0)"/>
     <use xlink:href="#DejaVuSans-65" transform="translate(237.060547 0)"/>
     <use xlink:href="#DejaVuSans-20" transform="translate(298.583984 0)"/>
     <use xlink:href="#DejaVuSans-50" transform="translate(330.371094 0)"/>
     <use xlink:href="#DejaVuSans-6f" transform="translate(387.048828 0)"/>
     <use xlink:href="#DejaVuSans-72" transform="translate(448.230469 0)"/>
     <use xlink:href="#DejaVuSans-74" transform="translate(489.34375 0)"/>
     <use xlink:href="#DejaVuSans-72" transform="translate(528.552734 0)"/>
     <use xlink:href="#DejaVuSans-61" transform="translate(569.666016 0)"/>
     <use xlink:href="#DejaVuSans-69" transform="translate(630.945312 0)"/>
     <use xlink:href="#DejaVuSans-74" transform="translate(658.728516 0)"/>
     <use xlink:href="#DejaVuSans-73" transform="translate(697.9375 0)"/>
    </g>
   </g>
   <g id="legend_2">
    <g id="patch_13">
     <path d="M 627.833281 188.638125 
L 708.056719 188.638125 
Q 710.056719 188.638125 710.056719 186.638125 
L 710.056719 158.281875 
Q 710.056719 156.281875 708.056719 156.281875 
L 627.833281 156.281875 
Q 625.833281 156.281875 625.833281 158.281875 
L 625.833281 186.638125 
Q 625.833281 188.638125 627.833281 188.638125 
z
" style="fill: #ffffff; opacity: 0.8; stroke: #cccccc; stroke-linejoin: miter"/>
    </g>
    <g id="line2d_65">
     <path d="M 629.833281 164.380313 
L 639.833281 164.380313 
L 649.833281 164.380313 
" style="fill: none; stroke-dasharray: 7.4,3.2; stroke-dashoffset: 0; stroke: #0000ff; stroke-width: 2"/>
    </g>
    <g id="text_38">
     <!-- Linear -->
     <g transform="translate(657.833281 167.880313) scale(0.1 -0.1)">
      <use xlink:href="#DejaVuSans-4c"/>
      <use xlink:href="#DejaVuSans-69" transform="translate(55.712891 0)"/>
      <use xlink:href="#DejaVuSans-6e" transform="translate(83.496094 0)"/>
      <use xlink:href="#DejaVuSans-65" transform="translate(146.875 0)"/>
      <use xlink:href="#DejaVuSans-61" transform="translate(208.398438 0)"/>
      <use xlink:href="#DejaVuSans-72" transform="translate(269.677734 0)"/>
     </g>
    </g>
    <g id="line2d_66">
     <path d="M 629.833281 179.058437 
L 639.833281 179.058437 
L 649.833281 179.058437 
" style="fill: none; stroke: #ff0000; stroke-width: 2; stroke-linecap: square"/>
    </g>
    <g id="text_39">
     <!-- Nonlinear -->
     <g transform="translate(657.833281 182.558437) scale(0.1 -0.1)">
      <use xlink:href="#DejaVuSans-4e"/>
      <use xlink:href="#DejaVuSans-6f" transform="translate(74.804688 0)"/>
      <use xlink:href="#DejaVuSans-6e" transform="translate(135.986328 0)"/>
      <use xlink:href="#DejaVuSans-6c" transform="translate(199.365234 0)"/>
      <use xlink:href="#DejaVuSans-69" transform="translate(227.148438 0)"/>
      <use xlink:href="#DejaVuSans-6e" transform="translate(254.931641 0)"/>
      <use xlink:href="#DejaVuSans-65" transform="translate(318.310547 0)"/>
      <use xlink:href="#DejaVuSans-61" transform="translate(379.833984 0)"/>
      <use xlink:href="#DejaVuSans-72" transform="translate(441.113281 0)"/>
     </g>
    </g>
   </g>
  </g>
 </g>
 <defs>
  <clipPath id="pc41e3f4ac6">
   <rect x="52.94" y="26.88" width="370.51" height="291.16"/>
  </clipPath>
  <clipPath id="p9f6d79bb47">
   <rect x="482.69" y="26.88" width="370.51" height="291.16"/>
  </clipPath>
 </defs>
</svg>
